<svg width="40" height="40" viewBox="0 0 40 40" fill="none" xmlns="http://www.w3.org/2000/svg">
<rect width="40" height="40" rx="5" fill="#FAFAFA"/>
<g clip-path="url(#clip0_2697_12234)">
<circle cx="20" cy="20" r="14" fill="#38524B"/>
<path d="M25.7362 23.6924V25.5882C25.7369 25.7642 25.7008 25.9384 25.6303 26.0997C25.5598 26.2609 25.4564 26.4057 25.3267 26.5247C25.197 26.6437 25.0439 26.7342 24.8772 26.7906C24.7105 26.847 24.5338 26.868 24.3585 26.8521C22.4139 26.6408 20.546 25.9763 18.9048 24.912C17.3779 23.9418 16.0834 22.6473 15.1132 21.1204C14.0452 19.4718 13.3805 17.5948 13.1731 15.6414C13.1573 15.4667 13.1781 15.2905 13.2341 15.1243C13.2901 14.958 13.3801 14.8052 13.4984 14.6756C13.6167 14.546 13.7607 14.4424 13.9212 14.3715C14.0817 14.3006 14.2552 14.2639 14.4307 14.2638H16.3265C16.6332 14.2608 16.9305 14.3694 17.163 14.5693C17.3956 14.7693 17.5475 15.047 17.5904 15.3507C17.6704 15.9574 17.8188 16.5531 18.0328 17.1265C18.1178 17.3527 18.1362 17.5985 18.0858 17.8348C18.0354 18.0711 17.9183 18.2881 17.7484 18.4599L16.9458 19.2625C17.8454 20.8446 19.1554 22.1545 20.7375 23.0541L21.54 22.2516C21.7119 22.0817 21.9288 21.9646 22.1651 21.9142C22.4014 21.8638 22.6473 21.8822 22.8734 21.9672C23.4468 22.1811 24.0425 22.3295 24.6492 22.4095C24.9562 22.4529 25.2365 22.6075 25.4369 22.844C25.6374 23.0805 25.7438 23.3825 25.7362 23.6924Z" fill="white"/>
<path d="M21.168 15.916V15.916C22.6042 16.2751 23.7256 17.3965 24.0846 18.8327V18.8327" stroke="white" stroke-width="1.16667" stroke-linecap="round"/>
<path d="M21.168 13V13C24.0404 13.7181 26.2832 15.9609 27.0013 18.8333V18.8333" stroke="white" stroke-width="1.16667" stroke-linecap="round"/>
</g>
<defs>
<clipPath id="clip0_2697_12234">
<rect width="28" height="28" fill="white" transform="translate(6 6)"/>
</clipPath>
</defs>
</svg>
