<svg width="40" height="40" viewBox="0 0 40 40" fill="none" xmlns="http://www.w3.org/2000/svg">
<path d="M0 8.2353C0 3.68708 3.68708 0 8.2353 0H31.7647C36.313 0 40 3.68708 40 8.2353V31.7647C40 36.313 36.313 40 31.7647 40H8.2353C3.68708 40 0 36.313 0 31.7647V8.2353Z" fill="#F14635"/>
<path fill-rule="evenodd" clip-rule="evenodd" d="M20.0007 6.75C27.2998 6.75 33.2195 12.5968 33.25 19.8214V19.935C33.2367 23.1471 32.0548 26.0858 30.1073 28.3605C30.0365 28.325 29.9077 28.209 29.6742 27.8598C29.4327 27.5088 27.3495 24.3026 27.3495 20.628C27.3495 19.9069 28.389 18.7804 29.3088 17.7915L29.3285 17.7703C30.0088 17.0342 30.65 16.3404 30.8875 15.7941C31.193 15.0822 30.9792 14.5852 30.6413 14.4167C30.3353 14.267 29.8757 14.3762 29.5535 14.9488C29.0245 15.8755 28.855 16.0486 28.0833 16.6687C27.324 17.2884 26.1168 17.9122 26.1168 17.1047C26.1168 16.8103 26.4235 16.2643 26.7248 15.7277L26.725 15.7277C26.8698 15.4697 27.0135 15.2138 27.1213 14.989C27.4605 14.2892 27.095 13.7825 26.3945 13.7825C25.019 13.7825 24.1061 15.5347 24.1061 16.1416C24.1061 16.4333 24.1742 16.6047 24.2448 16.7827C24.3211 16.9747 24.4003 17.1743 24.4003 17.5409C24.4003 18.2525 22.8912 19.1756 21.4697 19.1756C20.0388 19.1756 19.2364 18.8728 18.9366 18.0086L18.8415 17.7273L18.8257 17.6812C18.4966 16.7194 18.2557 16.0152 17.8412 15.28C17.6223 14.8932 17.287 14.6226 16.9931 14.3853L16.9743 14.3702C16.5843 14.0673 16.382 13.7884 16.3398 13.5803C16.3009 13.374 16.2799 12.9851 16.9466 12.0886C17.6118 11.1972 17.7051 10.5238 17.3722 10.1764C17.2514 10.0528 17.0458 9.97357 16.7816 9.97357C16.3144 9.97357 15.6651 10.2211 14.996 10.9012C14.1839 11.7333 14.3659 12.5326 14.4846 13.0545C14.518 13.201 14.5464 13.3257 14.5464 13.423C14.5464 13.867 14.3559 14.118 13.7317 14.7219C13.103 15.3286 12.8859 15.8487 12.814 17.9389C12.7865 19.0159 12.5968 19.6359 12.4265 20.1856C12.2794 20.6674 12.1441 21.1203 12.1368 21.7749C12.1252 22.5001 12.2459 22.9675 12.3868 23.5068C12.5251 24.0053 12.672 24.5765 12.7661 25.5317C12.9283 27.134 12.8537 28.4668 12.519 29.857L12.502 29.949L12.4985 29.963C12.4435 30.1847 12.3781 30.448 12.2904 30.548C8.93687 28.166 6.75 24.2759 6.75 19.8786C6.75 12.6285 12.6823 6.75 20.0007 6.75ZM20.6175 20.9539C19.9578 20.85 19.472 20.9458 19.13 21.235C18.2472 21.9868 18.2623 24.082 18.28 26.512L18.2844 27.2C18.2947 29.609 18.3082 31.692 18.8707 32.6075C19.05 32.8997 19.3889 33.1135 19.8396 33.2415C19.8726 33.2425 19.9056 33.2435 19.9387 33.2448C20.0222 33.2478 20.1059 33.2508 20.1905 33.2508C21.3057 33.2508 22.3885 33.1127 23.4244 32.8577C23.8526 32.6513 24.1627 32.4035 24.2691 32.1452C24.3329 31.9777 24.3679 31.6727 24.3679 31.2755C24.3679 29.7017 23.9058 26.7 23.6774 25.2162L23.6706 25.1723L23.5552 24.4035L23.5334 24.2521L23.5323 24.2447C23.3389 22.8815 23.1202 21.3402 20.6175 20.9539ZM16.3589 30.66C16.2925 28.7432 15.9621 26.2153 15.4481 26.2442C14.894 26.2782 14.6833 29.1623 14.9259 31.0875C15.0054 31.7002 15.1305 32.168 15.2941 32.4652C15.5393 32.5647 15.7882 32.6562 16.0415 32.7407C16.2653 32.5435 16.4055 31.9947 16.3589 30.66ZM28.3345 30.021C28.4545 29.4107 27.0065 25.9553 26.1985 26.3455C25.5785 26.653 25.819 30.1838 26.4595 31.3092C26.5262 31.4223 26.663 31.4402 26.817 31.4142C27.3002 31.123 27.7622 30.7995 28.2015 30.4468C28.2572 30.3323 28.3025 30.1968 28.3345 30.021Z" fill="white"/>
</svg>
