<svg width="40" height="40" viewBox="0 0 40 40" fill="none" xmlns="http://www.w3.org/2000/svg">
<rect width="40" height="40" rx="10" fill="#38524B"/>
<path d="M20.0003 23.3464C24.3864 23.3464 27.9421 19.7907 27.9421 15.4046C27.9421 11.0185 24.3864 7.46289 20.0003 7.46289C15.6142 7.46289 12.0586 11.0185 12.0586 15.4046C12.0586 19.7907 15.6142 23.3464 20.0003 23.3464Z" fill="white" stroke="white" stroke-width="2.16582" stroke-linecap="round" stroke-linejoin="round"/>
<path d="M20.4145 20.0003C19.9517 20.0003 19.5765 19.6251 19.5765 19.1624V19.0295C19.5765 18.7913 19.6779 18.5643 19.8553 18.4054L21.4153 17.0077C21.9829 16.4976 22.4272 16.0739 22.7481 15.7366C23.0689 15.3993 23.2952 15.1031 23.4268 14.8481C23.5584 14.593 23.6242 14.336 23.6242 14.0768C23.6242 13.6942 23.4967 13.4001 23.2417 13.1944C22.9908 12.9888 22.6308 12.8859 22.1619 12.8859C21.7876 12.8859 21.4276 12.96 21.0821 13.1081C21.0641 13.1158 21.0463 13.1236 21.0285 13.1317C20.5516 13.3484 19.911 13.2516 19.6886 12.7774C19.5489 12.4792 19.6175 12.1186 19.8902 11.9341C20.17 11.7448 20.4748 11.589 20.8044 11.4668C21.3145 11.2734 21.8349 11.1768 22.3655 11.1768C23.0031 11.1768 23.5584 11.2878 24.0315 11.51C24.5045 11.7321 24.8686 12.0427 25.1236 12.4417C25.3828 12.8366 25.5124 13.2973 25.5124 13.8238C25.5124 14.1776 25.4424 14.5231 25.3026 14.8604C25.1627 15.1977 24.9159 15.5782 24.5621 16.0019C24.2125 16.4215 23.7189 16.9316 23.0813 17.5322L22.2359 18.322H24.9027C25.3655 18.322 25.7407 18.6984 25.7407 19.1611C25.7407 19.6239 25.3655 20.0003 24.9027 20.0003H20.4145Z" fill="#38524B"/>
<path d="M17.1864 20.1001C16.7184 20.1001 16.339 19.7207 16.339 19.2527V13.6042L15.1792 14.0152C14.7329 14.1734 14.2421 13.9309 14.0913 13.482C13.9439 13.0432 14.1745 12.5631 14.6109 12.4089L18.0987 11.1768H18.236V19.2527C18.236 19.7207 17.8566 20.1001 17.3886 20.1001H17.1864Z" fill="#38524B"/>
<path d="M15.7009 22.0865L14.3281 32.4222L20.0008 29.0185L25.6735 32.4222L24.3007 22.0752" stroke="white" stroke-width="2.16582" stroke-linecap="round" stroke-linejoin="round"/>
</svg>
