<svg width="40" height="40" viewBox="0 0 40 40" fill="none" xmlns="http://www.w3.org/2000/svg">
<rect width="40" height="40" rx="5" fill="#38524B"/>
<path d="M11.3867 28.6133C10.3086 27.5352 11.0234 25.2734 10.4727 23.9492C9.92188 22.625 7.8125 21.4648 7.8125 20C7.8125 18.5352 9.89844 17.4219 10.4727 16.0508C11.0469 14.6797 10.3086 12.4648 11.3867 11.3867C12.4648 10.3086 14.7266 11.0234 16.0508 10.4727C17.375 9.92188 18.5352 7.8125 20 7.8125C21.4648 7.8125 22.5781 9.89844 23.9492 10.4727C25.3203 11.0469 27.5352 10.3086 28.6133 11.3867C29.6914 12.4648 28.9766 14.7266 29.5273 16.0508C30.0781 17.375 32.1875 18.5352 32.1875 20C32.1875 21.4648 30.1016 22.5781 29.5273 23.9492C28.9531 25.3203 29.6914 27.5352 28.6133 28.6133C27.5352 29.6914 25.2734 28.9766 23.9492 29.5273C22.625 30.0781 21.4648 32.1875 20 32.1875C18.5352 32.1875 17.4219 30.1016 16.0508 29.5273C14.6797 28.9531 12.4648 29.6914 11.3867 28.6133Z" stroke="#FAFAFA" stroke-width="1.5" stroke-linecap="round" stroke-linejoin="round"/>
<path d="M25.1562 17.1875L18.2773 23.75L14.8438 20.4688" stroke="#FAFAFA" stroke-width="1.5" stroke-linecap="round" stroke-linejoin="round"/>
</svg>
