<svg width="44" height="44" viewBox="0 0 44 44" fill="none" xmlns="http://www.w3.org/2000/svg">
<g clip-path="url(#clip0_3050_8961)">
<path d="M33.4286 2H10.5714C5.83756 2 2 5.83756 2 10.5714V33.4286C2 38.1624 5.83756 42 10.5714 42H33.4286C38.1624 42 42 38.1624 42 33.4286V10.5714C42 5.83756 38.1624 2 33.4286 2Z" fill="url(#paint0_radial_3050_8961)"/>
<path d="M33.4286 2H10.5714C5.83756 2 2 5.83756 2 10.5714V33.4286C2 38.1624 5.83756 42 10.5714 42H33.4286C38.1624 42 42 38.1624 42 33.4286V10.5714C42 5.83756 38.1624 2 33.4286 2Z" fill="url(#paint1_radial_3050_8961)"/>
<path d="M33.4286 2H10.5714C5.83756 2 2 5.83756 2 10.5714V33.4286C2 38.1624 5.83756 42 10.5714 42H33.4286C38.1624 42 42 38.1624 42 33.4286V10.5714C42 5.83756 38.1624 2 33.4286 2Z" fill="url(#paint2_radial_3050_8961)"/>
<path d="M32.0006 14.1429C32.0006 15.3263 31.0411 16.2857 29.8577 16.2857C28.6743 16.2857 27.7148 15.3263 27.7148 14.1429C27.7148 12.9594 28.6743 12 29.8577 12C31.0411 12 32.0006 12.9594 32.0006 14.1429Z" fill="white"/>
<path fill-rule="evenodd" clip-rule="evenodd" d="M21.9983 29.1431C25.9432 29.1431 29.1412 25.9451 29.1412 22.0003C29.1412 18.0554 25.9432 14.8574 21.9983 14.8574C18.0535 14.8574 14.8555 18.0554 14.8555 22.0003C14.8555 25.9451 18.0535 29.1431 21.9983 29.1431ZM21.9983 26.286C24.3653 26.286 26.284 24.3673 26.284 22.0003C26.284 19.6333 24.3653 17.7146 21.9983 17.7146C19.6313 17.7146 17.7126 19.6333 17.7126 22.0003C17.7126 24.3673 19.6313 26.286 21.9983 26.286Z" fill="white"/>
<path fill-rule="evenodd" clip-rule="evenodd" d="M7.71484 21.4282C7.71484 16.6277 7.71484 14.2274 8.64907 12.394C9.47084 10.7811 10.7821 9.46987 12.3949 8.6481C14.2284 7.71387 16.6287 7.71387 21.4291 7.71387H22.572C27.3724 7.71387 29.7727 7.71387 31.6061 8.6481C33.219 9.46987 34.5303 10.7811 35.352 12.394C36.2863 14.2274 36.2863 16.6277 36.2863 21.4282V22.571C36.2863 27.3714 36.2863 29.7717 35.352 31.6052C34.5303 33.218 33.219 34.5293 31.6061 35.351C29.7727 36.2853 27.3724 36.2853 22.572 36.2853H21.4291C16.6287 36.2853 14.2284 36.2853 12.3949 35.351C10.7821 34.5293 9.47084 33.218 8.64907 31.6052C7.71484 29.7717 7.71484 27.3714 7.71484 22.571V21.4282ZM21.4291 10.571H22.572C25.0194 10.571 26.683 10.5732 27.969 10.6783C29.2217 10.7806 29.8623 10.9661 30.3091 11.1938C31.3843 11.7417 32.2584 12.6159 32.8063 13.691C33.034 14.1379 33.2196 14.7784 33.3218 16.0312C33.4268 17.3172 33.4291 18.9807 33.4291 21.4282V22.571C33.4291 25.0184 33.4268 26.682 33.3218 27.968C33.2196 29.2207 33.034 29.8613 32.8063 30.3082C32.2584 31.3833 31.3843 32.2574 30.3091 32.8053C29.8623 33.033 29.2217 33.2186 27.969 33.3209C26.683 33.4259 25.0194 33.4282 22.572 33.4282H21.4291C18.9817 33.4282 17.3181 33.4259 16.0321 33.3209C14.7794 33.2186 14.1388 33.033 13.692 32.8053C12.6168 32.2574 11.7427 31.3833 11.1948 30.3082C10.9671 29.8613 10.7816 29.2207 10.6793 27.968C10.5742 26.682 10.572 25.0184 10.572 22.571V21.4282C10.572 18.9807 10.5742 17.3172 10.6793 16.0312C10.7816 14.7784 10.9671 14.1379 11.1948 13.691C11.7427 12.6159 12.6168 11.7417 13.692 11.1938C14.1388 10.9661 14.7794 10.7806 16.0321 10.6783C17.3181 10.5732 18.9817 10.571 21.4291 10.571Z" fill="white"/>
</g>
<rect x="1.25" y="1.25" width="41.5" height="41.5" rx="10.75" stroke="white" stroke-width="1.5"/>
<defs>
<radialGradient id="paint0_radial_3050_8961" cx="0" cy="0" r="1" gradientUnits="userSpaceOnUse" gradientTransform="translate(16.2857 32) rotate(-55.3758) scale(36.4566)">
<stop stop-color="#B13589"/>
<stop offset="0.79309" stop-color="#C62F94"/>
<stop offset="1" stop-color="#8A3AC8"/>
</radialGradient>
<radialGradient id="paint1_radial_3050_8961" cx="0" cy="0" r="1" gradientUnits="userSpaceOnUse" gradientTransform="translate(14.8571 43.4286) rotate(-65.1363) scale(32.2774)">
<stop stop-color="#E0E8B7"/>
<stop offset="0.444662" stop-color="#FB8A2E"/>
<stop offset="0.71474" stop-color="#E2425C"/>
<stop offset="1" stop-color="#E2425C" stop-opacity="0"/>
</radialGradient>
<radialGradient id="paint2_radial_3050_8961" cx="0" cy="0" r="1" gradientUnits="userSpaceOnUse" gradientTransform="translate(-0.142857 3.42857) rotate(-8.1301) scale(55.5584 11.8834)">
<stop offset="0.156701" stop-color="#406ADC"/>
<stop offset="0.467799" stop-color="#6A45BE"/>
<stop offset="1" stop-color="#6A45BE" stop-opacity="0"/>
</radialGradient>
<clipPath id="clip0_3050_8961">
<rect x="2" y="2" width="40" height="40" rx="10" fill="white"/>
</clipPath>
</defs>
</svg>
