<svg width="40" height="40" viewBox="0 0 40 40" fill="none" xmlns="http://www.w3.org/2000/svg">
<rect width="40" height="40" rx="5" fill="#38524B"/>
<g clip-path="url(#clip0_2655_11842)">
<path fill-rule="evenodd" clip-rule="evenodd" d="M18.7452 8.5235H20.0018C23.7398 8.5235 24.1825 8.53575 25.6577 8.604C27.0227 8.66525 27.7647 8.8945 28.2582 9.08525C28.911 9.339 29.3782 9.6435 29.8682 10.1335C30.3582 10.6235 30.661 11.089 30.9148 11.7435C31.1073 12.2353 31.3347 12.9773 31.396 14.3423C31.4642 15.8175 31.4783 16.2602 31.4783 19.9965C31.4783 23.7327 31.4642 24.1772 31.396 25.6525C31.3347 27.0175 31.1055 27.7577 30.9148 28.2512C30.6887 28.8583 30.3307 29.4076 29.8665 29.8595C29.3765 30.3495 28.911 30.6522 28.2565 30.906C27.7665 31.0985 27.0245 31.326 25.6577 31.389C24.1825 31.4555 23.7398 31.4712 20.0018 31.4712C16.2638 31.4712 15.8193 31.4555 14.344 31.389C12.979 31.326 12.2387 31.0985 11.7452 30.906C11.1377 30.6807 10.5878 30.3233 10.1352 29.8595C9.67023 29.4073 9.31157 28.8574 9.08525 28.2495C8.8945 27.7577 8.66525 27.0157 8.604 25.6507C8.5375 24.1755 8.5235 23.7327 8.5235 19.993C8.5235 16.2532 8.5375 15.814 8.604 14.3387C8.667 12.9737 8.8945 12.2317 9.087 11.7382C9.34075 11.0855 9.64525 10.6182 10.1352 10.1282C10.6252 9.63825 11.0907 9.3355 11.7452 9.08175C12.2387 8.88925 12.979 8.66175 14.344 8.59875C15.6355 8.53925 16.136 8.52175 18.7452 8.52V8.5235ZM26.8313 10.9754C27.0352 10.891 27.2536 10.8475 27.4742 10.8475C27.9198 10.8475 28.3471 11.0245 28.6622 11.3396C28.9773 11.6546 29.1542 12.0819 29.1542 12.5275C29.1542 12.9731 28.9773 13.4004 28.6622 13.7154C28.3471 14.0305 27.9198 14.2075 27.4742 14.2075C27.2536 14.2075 27.0352 14.164 26.8313 14.0796C26.6275 13.9952 26.4423 13.8714 26.2863 13.7154C26.1303 13.5594 26.0066 13.3742 25.9221 13.1704C25.8377 12.9666 25.7942 12.7481 25.7942 12.5275C25.7942 12.3069 25.8377 12.0884 25.9221 11.8846C26.0066 11.6808 26.1303 11.4956 26.2863 11.3396C26.4423 11.1836 26.6275 11.0598 26.8313 10.9754ZM17.2157 13.3257C18.1011 12.9711 19.0481 12.7961 20.0018 12.811C21.8892 12.8404 23.6894 13.6109 25.0137 14.9561C26.338 16.3012 27.0803 18.1132 27.0803 20.0009C27.0803 21.8886 26.338 23.7005 25.0137 25.0457C23.6894 26.3908 21.8892 27.1613 20.0018 27.1907C19.0481 27.2056 18.1011 27.0306 17.2157 26.676C16.3304 26.3214 15.5244 25.7941 14.8448 25.125C14.1651 24.4559 13.6254 23.6583 13.257 22.7785C12.8886 21.8988 12.6988 20.9546 12.6988 20.0009C12.6988 19.0471 12.8886 18.1029 13.257 17.2232C13.6254 16.3435 14.1651 15.5459 14.8448 14.8767C15.5244 14.2076 16.3304 13.6804 17.2157 13.3257Z" fill="white"/>
<path fill-rule="evenodd" clip-rule="evenodd" d="M14.2302 6.084C15.723 6.0175 16.2007 6 20 6H19.9965C23.801 6 24.2752 6.0175 25.7697 6.084C27.259 6.15225 28.2775 6.3885 29.17 6.735C30.1048 7.08557 30.9513 7.63695 31.6497 8.35025C32.3631 9.04875 32.9144 9.89523 33.265 10.83C33.6097 11.719 33.846 12.7375 33.916 14.2268C33.9825 15.7212 34 16.1972 34 20C34 23.8027 33.9825 24.2787 33.916 25.7715C33.846 27.2625 33.6097 28.2792 33.265 29.17C32.9062 30.0905 32.4285 30.871 31.6497 31.6497C30.9518 32.3628 30.1059 32.9142 29.1717 33.265C28.281 33.6115 27.2607 33.846 25.7715 33.916C24.277 33.9825 23.8027 34 20 34C16.1972 34 15.7212 33.9825 14.2268 33.916C12.7358 33.8477 11.7208 33.6115 10.8283 33.265C9.90775 32.908 9.12725 32.4285 8.35025 31.6497C7.5715 30.871 7.09375 30.0905 6.735 29.17C6.3885 28.2792 6.154 27.2625 6.084 25.7715C6.0175 24.2787 6 23.8028 6 20.0018C6 16.1973 6.0175 15.7212 6.084 14.225C6.15225 12.7375 6.3885 11.719 6.735 10.83C7.08557 9.89523 7.63695 9.04875 8.35025 8.35025C9.04875 7.63695 9.89523 7.08557 10.83 6.735C11.7207 6.3885 12.7375 6.154 14.2302 6.084ZM20.0018 8.5235H18.7452V8.52C16.136 8.52175 15.6355 8.53925 14.344 8.59875C12.979 8.66175 12.2387 8.88925 11.7452 9.08175C11.0907 9.3355 10.6252 9.63825 10.1352 10.1282C9.64525 10.6182 9.34075 11.0855 9.087 11.7382C8.8945 12.2317 8.667 12.9737 8.604 14.3387C8.5375 15.814 8.5235 16.2532 8.5235 19.993C8.5235 23.7327 8.5375 24.1755 8.604 25.6507C8.66525 27.0157 8.8945 27.7577 9.08525 28.2495C9.31157 28.8574 9.67023 29.4073 10.1352 29.8595C10.5878 30.3233 11.1377 30.6807 11.7452 30.906C12.2387 31.0985 12.979 31.326 14.344 31.389C15.8193 31.4555 16.2638 31.4712 20.0018 31.4712C23.7398 31.4712 24.1825 31.4555 25.6577 31.389C27.0245 31.326 27.7665 31.0985 28.2565 30.906C28.911 30.6522 29.3765 30.3495 29.8665 29.8595C30.3307 29.4076 30.6887 28.8583 30.9148 28.2512C31.1055 27.7577 31.3347 27.0175 31.396 25.6525C31.4642 24.1772 31.4783 23.7327 31.4783 19.9965C31.4783 16.2602 31.4642 15.8175 31.396 14.3423C31.3347 12.9773 31.1073 12.2353 30.9148 11.7435C30.661 11.089 30.3582 10.6235 29.8682 10.1335C29.3782 9.6435 28.911 9.339 28.2582 9.08525C27.7647 8.8945 27.0227 8.66525 25.6577 8.604C24.1825 8.53575 23.7398 8.5235 20.0018 8.5235ZM17.2157 13.3257C18.1011 12.9711 19.0481 12.7961 20.0018 12.811C21.8892 12.8404 23.6894 13.6109 25.0137 14.9561C26.338 16.3012 27.0803 18.1132 27.0803 20.0009C27.0803 21.8886 26.338 23.7005 25.0137 25.0457C23.6894 26.3908 21.8892 27.1613 20.0018 27.1907C19.0481 27.2056 18.1011 27.0306 17.2157 26.676C16.3304 26.3214 15.5244 25.7941 14.8448 25.125C14.1651 24.4559 13.6254 23.6583 13.257 22.7785C12.8886 21.8988 12.6988 20.9546 12.6988 20.0009C12.6988 19.0471 12.8886 18.1029 13.257 17.2232C13.6254 16.3435 14.1651 15.5459 14.8448 14.8767C15.5244 14.2076 16.3304 13.6804 17.2157 13.3257ZM21.7878 15.688C21.2216 15.4535 20.6147 15.3327 20.0018 15.3328C18.7639 15.3328 17.5768 15.8245 16.7015 16.6998C15.8262 17.575 15.3345 18.7622 15.3345 20C15.3345 21.2378 15.8262 22.425 16.7015 23.3002C17.5768 24.1755 18.7639 24.6672 20.0018 24.6672C20.6147 24.6672 21.2216 24.5465 21.7878 24.312C22.3541 24.0774 22.8686 23.7336 23.302 23.3002C23.7354 22.8668 24.0792 22.3523 24.3137 21.7861C24.5483 21.2198 24.669 20.6129 24.669 20C24.669 19.3871 24.5483 18.7802 24.3137 18.2139C24.0792 17.6477 23.7354 17.1331 23.302 16.6998C22.8686 16.2664 22.3541 15.9226 21.7878 15.688Z" fill="white"/>
</g>
<defs>
<clipPath id="clip0_2655_11842">
<rect width="28" height="28" fill="white" transform="translate(6 6)"/>
</clipPath>
</defs>
</svg>
