<svg width="110" height="40" viewBox="0 0 110 40" fill="none" xmlns="http://www.w3.org/2000/svg">
<rect x="0.5" y="0.5" width="109" height="39" rx="4.5" fill="white"/>
<rect x="0.5" y="0.5" width="109" height="39" rx="4.5" stroke="#2D3C38"/>
<path d="M57.0735 16.4148H54.4508L50.5928 20.1458V12.8505H48.5117V25.8024H50.5928V22.4417L51.8661 21.2752L54.8024 25.8024H57.4061L53.3675 19.8495L57.0735 16.4148ZM59.1356 19.3033H61.1596C61.3307 18.0812 61.9293 17.6276 63.3072 17.6276C64.6566 17.6276 65.2933 18.0812 65.2933 19.0441C65.2933 19.3866 65.2552 19.6088 65.1602 19.7199C64.9512 19.9884 64.5235 20.081 63.0411 20.2661C61.1121 20.5068 58.7175 20.7383 58.7175 23.2287C58.7175 24.9599 59.9718 26.0338 61.9769 26.0338C63.2502 26.0338 64.4855 25.7283 65.3598 24.9044C65.5118 25.7191 66.1105 26.0338 66.9277 26.0338C67.3363 26.0338 67.6404 25.9968 68.3151 25.8302V24.3767C68.049 24.4137 67.9825 24.4137 67.8304 24.4137C67.4408 24.4137 67.3268 24.2656 67.3268 23.7193V18.9515C67.3268 16.9332 65.6449 16.1093 63.3642 16.1093C61.0076 16.1278 59.3827 16.998 59.1356 19.3033ZM65.2742 21.0901V22.201C65.2742 22.7658 65.2933 23.3861 64.8466 23.8212C64.362 24.2933 63.5353 24.5711 62.661 24.5711C61.5587 24.5711 60.9221 24.0619 60.9221 23.1731C60.9221 21.9326 62.0434 21.7567 63.0411 21.6085C63.7919 21.4882 64.5806 21.4697 65.2742 21.0901ZM77.9602 19.1459C77.9602 17.0166 76.1262 16.1463 73.9216 16.1463C71.4509 16.1463 69.9685 17.2017 69.9685 18.9885C69.9685 21.0068 71.7075 21.2845 73.9216 21.8122C75.1379 22.0992 76.2212 22.2658 76.2212 23.2102C76.2212 24.0434 75.3945 24.5711 74.1402 24.5711C72.8098 24.5711 71.9165 24.0434 71.8025 22.8028H69.7595C69.8735 24.9507 71.3654 26.0801 74.1021 26.0801C76.6868 26.0801 78.3118 24.8766 78.3118 22.988C78.3118 20.9142 76.2497 20.4976 74.5678 20.118C73.0188 19.7754 72.0971 19.7014 72.0971 18.7571C72.0971 18.0627 72.7338 17.6646 73.8171 17.6646C74.9574 17.6646 75.7651 18.0072 75.9171 19.1552L77.9602 19.1459ZM82.74 16.4148H80.7349V29.2741H82.854V24.5618C83.6237 25.5987 84.688 26.0338 85.9994 26.0338C88.6031 26.0338 90.285 24.1082 90.285 21.1364C90.285 18.0997 88.565 16.1371 85.8853 16.1371C84.631 16.1371 83.4147 16.6092 82.74 17.6646V16.4148ZM85.4482 17.8128C87.0922 17.8128 88.1279 19.1089 88.1279 21.1456C88.1279 23.1454 87.1207 24.3859 85.4862 24.3859C83.7853 24.3859 82.7685 23.1454 82.7685 21.1086C82.778 19.0533 83.7663 17.8128 85.4482 17.8128ZM94.9983 12.7949H92.8697V14.8317H94.9983V12.7949ZM94.9983 16.4148H92.8697V25.8024H94.9983V16.4148Z" fill="#111111"/>
<path d="M21.0816 31.1912C22.5545 25.2383 20.8061 25.0347 20.8061 22.1462C20.8061 21.1833 21.5853 18.8781 21.6993 17.7579C21.9654 15.1842 21.3097 15.8693 23.2387 13.9621L23.3528 11.3143C24.322 10.407 24.8067 9.59234 25.9945 9.87934C26.7167 11.9716 25.3483 11.3143 25.2153 13.7584C26.023 14.8046 26.5646 14.9064 27.1728 16.2211C27.9425 17.8875 27.3914 17.869 28.8452 19.2669C30.9833 19.5076 32.2757 19.5169 33.8056 18.0171C33.9671 16.4155 33.0169 16.5543 33.9861 15.0823C34.6513 14.0732 35.307 13.527 36.5518 13.9343C36.9604 15.5082 35.1264 15.8322 35.6966 17.582C38.1578 17.8227 38.7279 14.5176 40.6094 14.3509C40.6094 17.8782 36.8274 18.3411 36.7419 21.2111C36.6849 23.0072 38.3193 27.9509 39.9728 29.0063C41.4266 26.8307 42.9946 24.4607 43.1751 21.8314C44.439 3.88942 20.0744 0.62135 15.4466 16.3322C15.2091 17.1376 15.0665 17.9523 15 18.767V20.85C15.4086 26.016 18.6775 30.5524 21.0816 31.1912Z" fill="#F14635"/>
<path d="M28.2072 33.5982C34.7925 34.3574 34.0988 32.3762 32.7969 25.0716C32.2838 22.1924 31.6851 20.6741 28.1787 20.9425C25.9931 23.47 27.0954 28.3952 27.1714 30.5523C27.2284 32.2558 26.9339 32.3669 28.2072 33.5982ZM35.7808 31.8392C36.8831 31.7096 37.0731 31.4874 37.9663 30.793C38.1089 29.321 37.0731 26.951 35.4577 26.4788C34.6975 27.9046 34.916 30.4412 35.7808 31.8392ZM24.9288 33.0613C24.9288 31.2652 25.1569 27.5528 24.2066 26.2751C22.9428 26.6362 23.3324 27.6916 23.3229 29.9413C23.3134 31.5892 22.9998 32.8946 24.9288 33.0613Z" fill="#F14635"/>
</svg>
