<svg width="270" height="99" viewBox="0 0 270 99" fill="none" xmlns="http://www.w3.org/2000/svg">
<path d="M128.963 56.2109H135.003V66.792C135.003 67.9188 134.909 70.1624 134.728 73.5329H134.868L144.867 56.2109H153.237V80.8484H147.234V70.5372C147.234 68.9732 147.333 66.6371 147.544 63.5265H147.402L137.316 80.8484H128.961V56.2109H128.963ZM164.985 61.7676V68.6334H170.304V61.7676H177.01V80.8484H170.304V73.5329H164.985V80.8484H158.277V61.7676H164.985ZM200.701 66.702C200.701 67.8114 200.368 68.7383 199.706 69.4679C199.044 70.1924 198.131 70.6596 196.975 70.847V70.9794C198.375 71.1344 199.441 71.6066 200.185 72.3886C200.93 73.1656 201.299 74.1725 201.299 75.3893C201.299 79.0295 198.284 80.8459 192.237 80.8459H181.65V61.7651H192.27C195.1 61.7651 197.21 62.1673 198.604 62.9793C200.004 63.7838 200.701 65.0281 200.701 66.702ZM194.486 74.7522C194.486 74.155 194.28 73.7278 193.871 73.4704C193.461 73.2106 192.863 73.0857 192.084 73.0857H188.358V76.5361H192.013C193.667 76.5361 194.486 75.9439 194.486 74.7522ZM194.023 67.5815C194.023 66.5796 193.41 66.0799 192.173 66.0799H188.361V68.9457H191.916C192.626 68.9457 193.153 68.8183 193.504 68.5609C193.848 68.2986 194.023 67.9713 194.023 67.5815ZM214.587 81.1932C211.347 81.1932 208.832 80.3487 207.041 78.6573C205.254 76.9658 204.358 74.5573 204.358 71.4342C204.358 68.2086 205.186 65.7351 206.847 64.0087C208.504 62.2847 210.871 61.4203 213.948 61.4203C216.877 61.4203 219.14 62.1673 220.738 63.6689C222.331 65.1705 223.128 67.3317 223.128 70.1499V73.0832H211.138C211.184 74.1475 211.581 74.987 212.334 75.5916C213.077 76.1963 214.103 76.5011 215.391 76.5011C216.569 76.5011 217.651 76.3912 218.641 76.1738C219.631 75.9564 220.702 75.5816 221.858 75.052V79.7966C220.809 80.3213 219.72 80.6885 218.6 80.8884C217.478 81.0908 216.137 81.1932 214.587 81.1932ZM214.185 65.9075C213.401 65.9075 212.739 66.1549 212.205 66.6446C211.673 67.1343 211.362 67.8988 211.276 68.9457H217.032C217.009 68.0237 216.747 67.2892 216.238 66.737C215.727 66.1824 215.047 65.9075 214.185 65.9075ZM235.779 81.1932C232.597 81.1932 230.19 80.3488 228.543 78.6623C226.904 76.9783 226.082 74.5573 226.082 71.3992C226.082 68.2311 226.968 65.7751 228.742 64.0312C230.518 62.2872 233.035 61.4203 236.311 61.4203C238.565 61.4203 240.685 61.905 242.678 62.8694L240.703 67.7389C239.889 67.3941 239.138 67.1118 238.453 66.9044C237.769 66.6971 237.054 66.5946 236.311 66.5946C235.221 66.5946 234.384 67.0094 233.786 67.8439C233.195 68.6734 232.895 69.8451 232.895 71.3642C232.895 74.4174 234.043 75.9464 236.346 75.9464C238.313 75.9464 240.199 75.3843 242.004 74.2625V79.5067C240.278 80.6311 238.204 81.1932 235.779 81.1932ZM263.903 66.6671H257.508V80.8484H250.794V66.6671H244.398V61.7676H263.906V66.6671H263.903Z" fill="#2D3C38"/>
<path d="M139.897 43.8933L134.761 26.1466H134.608C134.847 29.1722 134.965 31.5183 134.965 33.1923V43.8958H128.961V19.2583H137.988L143.226 36.7526H143.366L148.496 19.2583H157.541V43.8958H151.308V33.0948C151.308 32.5302 151.321 31.9106 151.339 31.221C151.354 30.5364 151.433 28.8574 151.568 26.1841H151.415L146.348 43.8958H139.897V43.8933ZM171.935 44.2381C168.696 44.2381 166.181 43.3936 164.39 41.7021C162.603 40.0106 161.707 37.6021 161.707 34.479C161.707 31.2535 162.534 28.78 164.196 27.0535C165.855 25.3271 168.22 24.4651 171.297 24.4651C174.226 24.4651 176.488 25.2122 178.087 26.7137C179.68 28.2153 180.476 30.3765 180.476 33.1948V36.128H168.487C168.533 37.1924 168.932 38.0318 169.683 38.634C170.426 39.2386 171.452 39.5434 172.74 39.5434C173.918 39.5434 175 39.4335 175.99 39.2161C176.98 38.9988 178.051 38.624 179.206 38.0943V42.8389C178.158 43.3611 177.069 43.7309 175.949 43.9307C174.829 44.1331 173.488 44.2381 171.935 44.2381ZM171.536 28.9499C170.752 28.9499 170.09 29.1972 169.556 29.6869C169.024 30.1741 168.713 30.9412 168.624 31.988H174.381C174.358 31.0686 174.096 30.3315 173.587 29.7794C173.078 29.2272 172.399 28.9499 171.536 28.9499ZM183.469 32.4702C183.469 30.5389 183.645 28.795 183.991 27.2434C184.342 25.6844 184.917 24.3327 185.709 23.1784C186.505 22.0291 187.541 21.0672 188.819 20.2901C190.091 19.5131 191.631 18.921 193.423 18.5137C195.222 18.099 198.327 17.7142 202.732 17.3569L203.366 22.8086C202.042 22.9136 200.23 23.0784 197.942 23.3258C195.652 23.5681 194.133 23.803 193.384 24.0379C192.634 24.2802 192.03 24.5975 191.562 24.9923C191.099 25.3945 190.761 25.8942 190.537 26.4939C190.308 27.096 190.168 27.8805 190.114 28.8449H190.407C190.806 28.0579 191.486 27.4033 192.445 26.8736C193.405 26.349 194.484 26.0866 195.672 26.0866C198.098 26.0866 199.971 26.7937 201.292 28.2028C202.602 29.612 203.264 31.6482 203.264 34.3091C203.264 37.4197 202.386 39.8532 200.627 41.6072C198.869 43.3611 196.433 44.2356 193.321 44.2356C190.252 44.2356 187.844 43.2012 186.091 41.135C184.342 39.0662 183.469 36.1805 183.469 32.4702ZM193.669 39.336C195.522 39.336 196.451 37.8994 196.451 35.0237C196.451 32.1929 195.601 30.7788 193.909 30.7788C193.242 30.7788 192.532 31.0386 191.776 31.5608C191.02 32.0855 190.521 32.6126 190.282 33.1548C190.282 34.9937 190.585 36.4828 191.188 37.6296C191.801 38.7689 192.626 39.336 193.669 39.336ZM216.574 44.2381C213.334 44.2381 210.82 43.3936 209.028 41.7021C207.242 40.0106 206.346 37.6021 206.346 34.479C206.346 31.2535 207.171 28.78 208.835 27.0535C210.492 25.3271 212.859 24.4651 215.935 24.4651C218.865 24.4651 221.125 25.2122 222.723 26.7137C224.316 28.2153 225.113 30.3765 225.113 33.1948V36.128H213.121C213.169 37.1924 213.566 38.0318 214.317 38.634C215.063 39.2386 216.086 39.5434 217.373 39.5434C218.552 39.5434 219.636 39.4335 220.626 39.2161C221.616 38.9988 222.687 38.624 223.843 38.0943V42.8389C222.794 43.3611 221.705 43.7309 220.585 43.9307C219.468 44.1331 218.127 44.2381 216.574 44.2381ZM216.175 28.9499C215.391 28.9499 214.727 29.1972 214.195 29.6869C213.663 30.1741 213.35 30.9412 213.263 31.988H219.023C219 31.0686 218.735 30.3315 218.226 29.7794C217.717 29.2272 217.037 28.9499 216.175 28.9499ZM248.425 43.8933H241.716V29.7119H237.769C237.395 33.8119 236.919 36.8251 236.346 38.7514C235.771 40.6777 234.987 42.0769 233.979 42.9389C232.972 43.8083 231.612 44.2381 229.907 44.2381C228.719 44.2381 227.706 44.0707 226.874 43.7309V38.8264C227.248 39.0262 227.752 39.1312 228.385 39.1312C228.902 39.1312 229.317 38.8738 229.64 38.3491C229.956 37.8245 230.243 36.9925 230.49 35.8482C230.729 34.7039 230.958 33.2323 231.157 31.4309C231.355 29.637 231.549 27.4283 231.732 24.8124H248.427V43.8933H248.425ZM259.77 24.8099V31.6757H260.401C263.776 31.6757 266.219 32.1354 267.731 33.0574C269.242 33.9768 269.998 35.4834 269.998 37.5721C269.998 39.7633 269.273 41.3673 267.82 42.3742C266.367 43.3861 264.165 43.8933 261.211 43.8933H253.056V24.8099H259.77ZM263.285 37.8594C263.285 37.1974 263.099 36.7201 262.722 36.4278C262.343 36.1355 261.714 35.9906 260.831 35.9906H259.77V39.5784H260.9C262.496 39.5784 263.285 39.0038 263.285 37.8594Z" fill="#2D3C38"/>
<path fill-rule="evenodd" clip-rule="evenodd" d="M11.5186 87.2419H19.749H54.3047V96.6437C54.3047 97.6905 53.4317 98.55 52.3629 98.55H19.749H0V33.9268V24.5251C0 23.4757 0.875473 22.6187 1.94182 22.6187H23.0371H34.5557H32.6139C33.6802 22.6187 34.5557 23.4757 34.5557 24.5251V33.9268V57.8723L65.8232 22.6162L75.6825 22.6112C76.5427 22.6112 77.3443 23.2908 77.3443 24.2552V40.7777V64.6232H88.8654V40.7777H88.8629V11.3081H57.5979H23.0397V1.90634C23.0397 0.85698 23.9151 0 24.9815 0H57.5979H100.384V64.6232V74.0249C100.384 75.0743 99.5111 75.9313 98.4422 75.9313H67.7676C66.6987 75.9313 65.8258 75.0743 65.8258 74.0249V64.6232L65.8232 40.6777L34.5582 75.9313L24.7295 75.9338C23.8591 75.9338 23.0371 75.2667 23.0371 74.2923V48.9802V33.9268H11.5186V48.9802V87.2419V87.2419Z" fill="#2D3C38"/>
</svg>
