<svg width="70" height="70" viewBox="0 0 70 70" fill="none" xmlns="http://www.w3.org/2000/svg">
<path d="M70 35C70 54.33 54.33 70 35 70C15.67 70 0 54.33 0 35C0 15.67 15.67 0 35 0C54.33 0 70 15.67 70 35ZM8.29992 35C8.29992 49.746 20.254 61.7001 35 61.7001C49.746 61.7001 61.7001 49.746 61.7001 35C61.7001 20.254 49.746 8.29992 35 8.29992C20.254 8.29992 8.29992 20.254 8.29992 35Z" fill="#DCDCDC"/>
<path d="M65.0379 42.0322C67.2695 42.5547 68.6783 44.7994 67.8955 46.9535C66.0488 52.0357 63.0423 56.6396 59.0928 60.3877C54.1361 65.0916 47.9108 68.2416 41.1849 69.4492C34.459 70.6567 27.5267 69.869 21.2432 67.1831C14.9597 64.4972 9.59996 60.0307 5.82506 54.3345C2.05016 48.6383 0.0252902 41.9617 0.000235259 35.1283C-0.0248197 28.2949 1.95104 21.6036 5.68407 15.88C9.41709 10.1563 14.744 5.65056 21.0076 2.91866C25.9984 0.741897 31.4099 -0.23283 36.81 0.0468085C39.0989 0.165337 40.6172 2.3375 40.2287 4.59629V4.59629C39.8403 6.85509 37.689 8.33695 35.3973 8.30286C31.6062 8.24646 27.83 8.99803 24.3258 10.5264C19.5475 12.6105 15.4838 16.0477 12.6361 20.4141C9.78829 24.7805 8.28098 29.885 8.3001 35.0979C8.31921 40.3108 9.8639 45.4041 12.7436 49.7495C15.6233 54.0949 19.7121 57.5022 24.5055 59.5512C29.2989 61.6001 34.5873 62.2011 39.7182 61.2799C44.8491 60.3587 49.5982 57.9557 53.3795 54.3672C56.1526 51.7355 58.3162 48.5507 59.7416 45.0374C60.6032 42.9136 62.8062 41.5098 65.0379 42.0322V42.0322Z" fill="#2D3C38"/>
</svg>
