<svg width="30" height="30" viewBox="0 0 30 30" fill="none" xmlns="http://www.w3.org/2000/svg">
<rect width="30" height="30" rx="5" fill="#38524B"/>
<path d="M8.69922 23.7002H21.2992" stroke="#FAFAFA" stroke-width="1.5" stroke-linecap="round" stroke-linejoin="round"/>
<path d="M14.9992 15.3002C16.5456 15.3002 17.7992 14.0466 17.7992 12.5002C17.7992 10.9538 16.5456 9.7002 14.9992 9.7002C13.4528 9.7002 12.1992 10.9538 12.1992 12.5002C12.1992 14.0466 13.4528 15.3002 14.9992 15.3002Z" stroke="#FAFAFA" stroke-width="1.5" stroke-linecap="round" stroke-linejoin="round"/>
<path d="M22 12.5C22 18.8 15 23.7 15 23.7C15 23.7 8 18.8 8 12.5C8 10.6435 8.7375 8.86301 10.0503 7.55025C11.363 6.2375 13.1435 5.5 15 5.5C16.8565 5.5 18.637 6.2375 19.9497 7.55025C21.2625 8.86301 22 10.6435 22 12.5V12.5Z" stroke="#FAFAFA" stroke-width="1.5" stroke-linecap="round" stroke-linejoin="round"/>
</svg>
