<svg width="95" height="35" viewBox="0 0 95 35" fill="none" xmlns="http://www.w3.org/2000/svg">
<path d="M45.3759 19.9629H47.5008V23.7207C47.5008 24.1209 47.4677 24.9178 47.4041 26.1148H47.4534L50.9716 19.9629H53.9167V28.7129H51.8044V25.0509C51.8044 24.4954 51.8393 23.6657 51.9136 22.561H51.8635L48.3148 28.7129H45.375V19.9629H45.3759ZM58.0502 21.9363V24.3747H59.9217V21.9363H62.2812V28.7129H59.9217V26.1148H58.0502V28.7129H55.6897V21.9363H58.0502ZM70.617 23.6888C70.617 24.0828 70.4997 24.412 70.2668 24.6711C70.034 24.9284 69.7125 25.0943 69.306 25.1609V25.2079C69.7985 25.2629 70.1737 25.4306 70.4352 25.7084C70.6975 25.9843 70.8274 26.3419 70.8274 26.7741C70.8274 28.0669 69.7663 28.712 67.6387 28.712H63.9136V21.9354H67.6503C68.6461 21.9354 69.3884 22.0783 69.8791 22.3667C70.3716 22.6524 70.617 23.0943 70.617 23.6888ZM68.4303 26.5478C68.4303 26.3357 68.3577 26.184 68.2136 26.0926C68.0694 26.0003 67.859 25.9559 67.5849 25.9559H66.274V27.1814H67.5599C68.1419 27.1814 68.4303 26.9711 68.4303 26.5478ZM68.2673 24.0011C68.2673 23.6453 68.0515 23.4679 67.6163 23.4679H66.2749V24.4856H67.5258C67.7757 24.4856 67.961 24.4404 68.0846 24.349C68.2055 24.2558 68.2673 24.1396 68.2673 24.0011ZM75.5026 28.8353C74.3626 28.8353 73.4779 28.5354 72.8475 27.9347C72.2189 27.334 71.9037 26.4786 71.9037 25.3694C71.9037 24.2239 72.1947 23.3454 72.7795 22.7323C73.3624 22.12 74.1952 21.813 75.2778 21.813C76.3085 21.813 77.1045 22.0783 77.6669 22.6116C78.2274 23.1449 78.5077 23.9124 78.5077 24.9133V25.9551H74.2892C74.3053 26.3331 74.445 26.6312 74.7101 26.8459C74.9716 27.0607 75.3324 27.1689 75.7855 27.1689C76.2001 27.1689 76.5807 27.1299 76.929 27.0527C77.2773 26.9755 77.6543 26.8424 78.0609 26.6543V28.3393C77.6919 28.5257 77.3087 28.6561 76.9147 28.7271C76.5198 28.799 76.0479 28.8353 75.5026 28.8353ZM75.3611 23.4066C75.0853 23.4066 74.8525 23.4945 74.6644 23.6684C74.4773 23.8423 74.368 24.1138 74.3376 24.4856H76.3631C76.355 24.1582 76.2628 23.8973 76.0837 23.7012C75.9037 23.5042 75.6646 23.4066 75.3611 23.4066ZM82.959 28.8353C81.8397 28.8353 80.9926 28.5354 80.4132 27.9365C79.8366 27.3384 79.5473 26.4786 79.5473 25.357C79.5473 24.2319 79.8589 23.3596 80.4831 22.7402C81.1081 22.1209 81.9937 21.813 83.1462 21.813C83.9395 21.813 84.6854 21.9851 85.3866 22.3276L84.6917 24.057C84.4052 23.9346 84.141 23.8343 83.9001 23.7607C83.6592 23.687 83.4076 23.6507 83.1462 23.6507C82.7629 23.6507 82.4683 23.7979 82.2579 24.0943C82.0501 24.3889 81.9444 24.8051 81.9444 25.3446C81.9444 26.4289 82.3483 26.9719 83.1587 26.9719C83.8509 26.9719 84.5144 26.7723 85.1493 26.3739V28.2364C84.5422 28.6357 83.8124 28.8353 82.959 28.8353ZM92.8547 23.6764H90.6044V28.7129H88.2422V23.6764H85.9919V21.9363H92.8556V23.6764H92.8547Z" fill="#2D3C38"/>
<path d="M49.2228 15.5884L47.4157 9.2857H47.362C47.4462 10.3603 47.4874 11.1935 47.4874 11.788V15.5893H45.375V6.83932H48.5512L50.394 13.0524H50.4433L52.2485 6.83932H55.4309V15.5893H53.238V11.7534C53.238 11.5528 53.2425 11.3328 53.2487 11.0879C53.2541 10.8447 53.2819 10.2485 53.3293 9.29901H53.2756L51.4927 15.5893H49.2228V15.5884ZM60.4956 15.7109C59.3557 15.7109 58.471 15.411 57.8406 14.8102C57.212 14.2095 56.8968 13.3541 56.8968 12.245C56.8968 11.0994 57.1878 10.221 57.7726 9.6078C58.3564 8.99466 59.1883 8.68853 60.2709 8.68853C61.3015 8.68853 62.0976 8.95384 62.66 9.48713C63.2205 10.0204 63.5008 10.788 63.5008 11.7889V12.8306H59.2823C59.2984 13.2086 59.439 13.5068 59.7032 13.7206C59.9646 13.9353 60.3255 14.0436 60.7786 14.0436C61.1932 14.0436 61.5738 14.0045 61.9221 13.9273C62.2704 13.8501 62.6474 13.717 63.0539 13.5289V15.214C62.685 15.3994 62.3018 15.5308 61.9078 15.6017C61.5138 15.6736 61.0419 15.7109 60.4956 15.7109ZM60.3551 10.2813C60.0793 10.2813 59.8464 10.3691 59.6584 10.5431C59.4712 10.7161 59.362 10.9885 59.3307 11.3603H61.3562C61.3481 11.0338 61.2559 10.772 61.0768 10.5759C60.8977 10.3798 60.6586 10.2813 60.3551 10.2813ZM64.5538 11.5315C64.5538 10.8456 64.6156 10.2263 64.7374 9.67524C64.861 9.12155 65.0633 8.6415 65.3418 8.23155C65.6221 7.82338 65.9866 7.48175 66.4361 7.20579C66.8838 6.92983 67.4256 6.71953 68.056 6.5749C68.689 6.4276 69.7815 6.29095 71.3315 6.16406L71.5545 8.10023C71.0889 8.13749 70.4513 8.19606 69.6463 8.2839C68.8404 8.36997 68.3058 8.45338 68.0425 8.53679C67.7784 8.62286 67.5661 8.73556 67.4014 8.87575C67.2384 9.01862 67.1193 9.19608 67.0405 9.40904C66.9599 9.62289 66.9107 9.90151 66.8919 10.244H66.9948C67.1354 9.96451 67.3745 9.73203 67.7121 9.54392C68.0497 9.35758 68.4294 9.26441 68.8475 9.26441C69.7009 9.26441 70.36 9.51552 70.8247 10.016C71.2859 10.5164 71.5187 11.2396 71.5187 12.1846C71.5187 13.2894 71.2097 14.1536 70.591 14.7765C69.9722 15.3994 69.1153 15.71 68.0201 15.71C66.9402 15.71 66.0931 15.3426 65.4762 14.6088C64.861 13.8741 64.5538 12.8492 64.5538 11.5315ZM68.1428 13.9699C68.7947 13.9699 69.1215 13.4597 69.1215 12.4384C69.1215 11.4331 68.8225 10.9308 68.227 10.9308C67.9924 10.9308 67.7425 11.0231 67.4766 11.2086C67.2106 11.3949 67.0351 11.5821 66.951 11.7747C66.951 12.4278 67.0575 12.9566 67.2697 13.3639C67.4856 13.7685 67.7757 13.9699 68.1428 13.9699ZM76.2019 15.7109C75.062 15.7109 74.1773 15.411 73.5469 14.8102C72.9183 14.2095 72.6031 13.3541 72.6031 12.245C72.6031 11.0994 72.8932 10.221 73.4788 9.6078C74.0618 8.99466 74.8945 8.68853 75.9771 8.68853C77.0078 8.68853 77.803 8.95384 78.3653 9.48713C78.9259 10.0204 79.2062 10.788 79.2062 11.7889V12.8306H74.9868C75.0038 13.2086 75.1435 13.5068 75.4076 13.7206C75.67 13.9353 76.03 14.0436 76.4831 14.0436C76.8977 14.0436 77.2791 14.0045 77.6275 13.9273C77.9758 13.8501 78.3528 13.717 78.7593 13.5289V15.214C78.3904 15.3994 78.0071 15.5308 77.6131 15.6017C77.22 15.6736 76.7481 15.7109 76.2019 15.7109ZM76.0613 10.2813C75.7855 10.2813 75.5518 10.3691 75.3647 10.5431C75.1775 10.7161 75.0674 10.9885 75.0369 11.3603H77.0633C77.0553 11.0338 76.9621 10.772 76.7831 10.5759C76.604 10.3798 76.3649 10.2813 76.0613 10.2813ZM87.4085 15.5884H85.0481V10.5519H83.6592C83.5276 12.008 83.3602 13.0782 83.1587 13.7623C82.9563 14.4464 82.6805 14.9433 82.3259 15.2495C81.9713 15.5583 81.4931 15.7109 80.8932 15.7109C80.475 15.7109 80.1186 15.6514 79.8258 15.5308V13.7889C79.9574 13.8599 80.1347 13.8972 80.3577 13.8972C80.5395 13.8972 80.6854 13.8058 80.7992 13.6194C80.9102 13.4331 81.0114 13.1376 81.0983 12.7312C81.1824 12.3248 81.263 11.8022 81.3329 11.1624C81.4027 10.5253 81.4708 9.7409 81.5352 8.81187H87.4094V15.5884H87.4085ZM91.4004 8.81098V11.2494H91.6225C92.8099 11.2494 93.6695 11.4126 94.2014 11.7401C94.7333 12.0666 94.9993 12.6017 94.9993 13.3435C94.9993 14.1217 94.7441 14.6913 94.2328 15.0489C93.7215 15.4083 92.9469 15.5884 91.9073 15.5884H89.0382V8.81098H91.4004ZM92.6371 13.4455C92.6371 13.2104 92.5717 13.0409 92.4392 12.9371C92.3057 12.8333 92.0846 12.7818 91.7739 12.7818H91.4004V14.056H91.798C92.3595 14.056 92.6371 13.8519 92.6371 13.4455Z" fill="#2D3C38"/>
<path fill-rule="evenodd" clip-rule="evenodd" d="M4.05282 30.9839H6.94872H19.1072V34.323C19.1072 34.6948 18.8001 35 18.424 35H6.94872H0V12.0491V8.71007C0 8.33739 0.308037 8.03303 0.683232 8.03303H8.10565H12.1585H11.4752C11.8504 8.03303 12.1585 8.33739 12.1585 8.71007V12.0491V20.5533L23.16 8.03215L26.629 8.03037C26.9317 8.03037 27.2137 8.27173 27.2137 8.61424V14.4822V22.9509H31.2675V14.4822H31.2666V4.01607H20.2659H8.10655V0.677036C8.10655 0.304356 8.41458 0 8.78978 0H20.2659H35.3203V22.9509V26.2899C35.3203 26.6626 35.0132 26.967 34.6371 26.967H23.8442C23.4681 26.967 23.1609 26.6626 23.1609 26.2899V22.9509L23.16 14.4467L12.1594 26.967L8.70113 26.9679C8.39488 26.9679 8.10565 26.7309 8.10565 26.3849V17.3953V12.0491H4.05282V17.3953V30.9839V30.9839Z" fill="#2D3C38"/>
</svg>
