<svg width="150" height="55" viewBox="0 0 150 55" fill="none" xmlns="http://www.w3.org/2000/svg">
<path d="M71.6459 31.3706H75.0011V37.2758C75.0011 37.9047 74.9488 39.1568 74.8484 41.0379H74.9261L80.4813 31.3706H85.1315V45.1206H81.7962V39.366C81.7962 38.4931 81.8513 37.1894 81.9686 35.4534H81.8895L76.2863 45.1206H71.6445V31.3706H71.6459ZM91.6579 34.4717V38.3035H94.6129V34.4717H98.3385V45.1206H94.6129V41.0379H91.6579V45.1206H87.931V34.4717H91.6579ZM111.5 37.2256C111.5 37.8447 111.315 38.362 110.947 38.7692C110.58 39.1736 110.072 39.4343 109.43 39.5389V39.6128C110.208 39.6992 110.8 39.9628 111.213 40.3992C111.628 40.8329 111.833 41.3948 111.833 42.0739C111.833 44.1055 110.157 45.1192 106.798 45.1192H100.916V34.4703H106.816C108.388 34.4703 109.56 34.6948 110.335 35.148C111.113 35.597 111.5 36.2914 111.5 37.2256ZM108.048 41.7183C108.048 41.3851 107.933 41.1466 107.705 41.003C107.478 40.858 107.146 40.7883 106.713 40.7883H104.643V42.7139H106.673C107.592 42.7139 108.048 42.3834 108.048 41.7183ZM107.79 37.7164C107.79 37.1573 107.45 36.8784 106.762 36.8784H104.644V38.4778H106.62C107.014 38.4778 107.307 38.4067 107.502 38.263C107.693 38.1166 107.79 37.934 107.79 37.7164ZM119.214 45.313C117.415 45.313 116.018 44.8417 115.022 43.8977C114.03 42.9537 113.532 41.6096 113.532 39.8666C113.532 38.0664 113.992 36.686 114.915 35.7225C115.835 34.7603 117.15 34.2779 118.859 34.2779C120.487 34.2779 121.744 34.6948 122.632 35.5328C123.517 36.3709 123.959 37.577 123.959 39.1499V40.7869H117.299C117.324 41.3809 117.545 41.8494 117.963 42.1868C118.376 42.5243 118.946 42.6944 119.661 42.6944C120.316 42.6944 120.917 42.633 121.467 42.5117C122.017 42.3904 122.612 42.1813 123.254 41.8856V44.5336C122.671 44.8264 122.066 45.0314 121.444 45.1429C120.821 45.2559 120.075 45.313 119.214 45.313ZM118.991 36.7822C118.555 36.7822 118.188 36.9202 117.891 37.1935C117.595 37.4668 117.423 37.8935 117.375 38.4778H120.573C120.56 37.9632 120.415 37.5533 120.132 37.2451C119.848 36.9356 119.47 36.7822 118.991 36.7822ZM130.988 45.313C129.22 45.313 127.883 44.8417 126.968 43.9005C126.058 42.9607 125.601 41.6096 125.601 39.8471C125.601 38.079 126.093 36.7083 127.078 35.735C128.065 34.7617 129.464 34.2779 131.283 34.2779C132.536 34.2779 133.714 34.5484 134.821 35.0866L133.724 37.8043C133.271 37.6119 132.854 37.4543 132.474 37.3386C132.093 37.2228 131.696 37.1657 131.283 37.1657C130.678 37.1657 130.213 37.3971 129.881 37.8628C129.553 38.3258 129.386 38.9797 129.386 39.8275C129.386 41.5315 130.023 42.3848 131.303 42.3848C132.396 42.3848 133.444 42.0711 134.446 41.445V44.3718C133.487 44.9993 132.335 45.313 130.988 45.313ZM146.612 37.2061H143.059V45.1206H139.33V37.2061H135.776V34.4717H146.614V37.2061H146.612Z" fill="#2D3C38"/>
<path d="M77.72 24.4967L74.8668 14.5924H74.7819C74.9148 16.281 74.9799 17.5904 74.9799 18.5246V24.4981H71.6445V10.7481H76.6596L79.5693 20.5116H79.6471L82.4974 10.7481H87.5223V24.4981H84.0598V18.4702C84.0598 18.1551 84.0668 17.8093 84.0767 17.4244C84.0852 17.0424 84.129 16.1053 84.204 14.6134H84.1191L81.3041 24.4981H77.72V24.4967ZM95.5192 24.6892C93.7194 24.6892 92.3225 24.2179 91.3271 23.2739C90.3345 22.3299 89.8369 20.9857 89.8369 19.2427C89.8369 17.4426 90.2964 16.0621 91.2196 15.0986C92.1415 14.1351 93.455 13.654 95.1643 13.654C96.7917 13.654 98.0486 14.0709 98.9366 14.909C99.8216 15.747 100.264 16.9531 100.264 18.526V20.163H93.6034C93.6289 20.757 93.8509 21.2255 94.2679 21.5616C94.6808 21.899 95.2506 22.0691 95.966 22.0691C96.6206 22.0691 97.2215 22.0078 97.7715 21.8865C98.3215 21.7651 98.9168 21.556 99.5587 21.2604V23.9083C98.9761 24.1997 98.371 24.4061 97.7489 24.5177C97.1268 24.6306 96.3817 24.6892 95.5192 24.6892ZM95.2973 16.1569C94.8618 16.1569 94.4942 16.295 94.1973 16.5683C93.9018 16.8402 93.7293 17.2683 93.6798 17.8525H96.878C96.8652 17.3394 96.7196 16.928 96.4368 16.6199C96.1541 16.3117 95.7766 16.1569 95.2973 16.1569ZM101.927 18.1216C101.927 17.0438 102.024 16.0705 102.217 15.2046C102.412 14.3345 102.731 13.5801 103.171 12.9359C103.614 12.2945 104.189 11.7577 104.899 11.324C105.606 10.8904 106.461 10.5599 107.457 10.3326C108.456 10.1011 110.181 9.88641 112.629 9.68701L112.981 12.7296C112.245 12.7881 111.239 12.8801 109.968 13.0182C108.695 13.1534 107.851 13.2845 107.435 13.4156C107.018 13.5508 106.683 13.7279 106.423 13.9482C106.166 14.1727 105.978 14.4516 105.853 14.7863C105.726 15.1223 105.648 15.5601 105.619 16.0984H105.781C106.003 15.6592 106.381 15.2938 106.914 14.9982C107.447 14.7054 108.046 14.559 108.706 14.559C110.054 14.559 111.094 14.9536 111.828 15.74C112.556 16.5265 112.924 17.6629 112.924 19.1479C112.924 20.8839 112.436 22.242 111.459 23.2209C110.482 24.1997 109.129 24.6878 107.4 24.6878C105.695 24.6878 104.357 24.1105 103.383 22.9573C102.412 21.8028 101.927 20.1923 101.927 18.1216ZM107.594 21.9534C108.623 21.9534 109.139 21.1516 109.139 19.5467C109.139 17.9668 108.667 17.1776 107.727 17.1776C107.356 17.1776 106.962 17.3226 106.542 17.6141C106.122 17.9069 105.845 18.2011 105.712 18.5037C105.712 19.53 105.88 20.361 106.215 21.001C106.556 21.6369 107.014 21.9534 107.594 21.9534ZM120.319 24.6892C118.519 24.6892 117.122 24.2179 116.126 23.2739C115.134 22.3299 114.636 20.9857 114.636 19.2427C114.636 17.4426 115.094 16.0621 116.019 15.0986C116.939 14.1351 118.254 13.654 119.964 13.654C121.591 13.654 122.847 14.0709 123.735 14.909C124.62 15.747 125.062 16.9531 125.062 18.526V20.163H118.4C118.427 20.757 118.647 21.2255 119.064 21.5616C119.479 21.899 120.047 22.0691 120.763 22.0691C121.417 22.0691 122.019 22.0078 122.569 21.8865C123.119 21.7651 123.715 21.556 124.357 21.2604V23.9083C123.774 24.1997 123.169 24.4061 122.547 24.5177C121.926 24.6306 121.181 24.6892 120.319 24.6892ZM120.097 16.1569C119.661 16.1569 119.292 16.295 118.997 16.5683C118.701 16.8402 118.527 17.2683 118.479 17.8525H121.679C121.666 17.3394 121.519 16.928 121.236 16.6199C120.953 16.3117 120.576 16.1569 120.097 16.1569ZM138.013 24.4967H134.286V16.5822H132.093C131.886 18.8704 131.621 20.552 131.303 21.6271C130.983 22.7022 130.548 23.483 129.988 23.9641C129.428 24.4493 128.673 24.6892 127.726 24.6892C127.066 24.6892 126.503 24.5957 126.041 24.4061V21.6689C126.248 21.7805 126.528 21.839 126.88 21.839C127.167 21.839 127.398 21.6954 127.577 21.4026C127.753 21.1098 127.913 20.6455 128.05 20.0068C128.183 19.3682 128.31 18.5469 128.42 17.5416C128.53 16.5404 128.638 15.3078 128.74 13.8478H138.015V24.4967H138.013ZM144.316 13.8465V17.6782H144.667C146.542 17.6782 147.899 17.9348 148.739 18.4493C149.579 18.9624 149.999 19.8033 149.999 20.969C149.999 22.1918 149.596 23.087 148.788 23.649C147.981 24.2137 146.758 24.4967 145.117 24.4967H140.586V13.8465H144.316ZM146.269 21.1293C146.269 20.7598 146.166 20.4935 145.956 20.3303C145.746 20.1672 145.396 20.0863 144.906 20.0863H144.316V22.0886H144.944C145.831 22.0886 146.269 21.7679 146.269 21.1293Z" fill="#2D3C38"/>
<path fill-rule="evenodd" clip-rule="evenodd" d="M6.3992 48.689H10.9717H30.1693V53.9361C30.1693 54.5203 29.6843 55 29.0905 55H10.9717H0V18.9343V13.6873C0 13.1016 0.486374 12.6233 1.07879 12.6233H12.7984H19.1976H18.1188C18.7112 12.6233 19.1976 13.1016 19.1976 13.6873V18.9343V32.2981L36.5685 12.6219L42.0458 12.6192C42.5237 12.6192 42.9691 12.9984 42.9691 13.5367V22.7577V36.0657H49.3697V22.7577H49.3683V6.31097H31.9988H12.7998V1.06391C12.7998 0.478274 13.2862 0 13.8786 0H31.9988H55.7689V36.0657V41.3127C55.7689 41.8984 55.2839 42.3767 54.6901 42.3767H37.6487C37.0548 42.3767 36.5699 41.8984 36.5699 41.3127V36.0657L36.5685 22.7019L19.199 42.3767L13.7386 42.3781C13.2551 42.3781 12.7984 42.0058 12.7984 41.4619V27.3355V18.9343H6.3992V27.3355V48.689V48.689Z" fill="#2D3C38"/>
</svg>
