<svg width="227" height="83" viewBox="0 0 227 83" fill="none" xmlns="http://www.w3.org/2000/svg">
<path d="M108.424 47.3398H113.501V56.2513C113.501 57.2003 113.422 59.09 113.27 61.9286H113.388L121.795 47.3398H128.832V68.0898H123.785V59.4056C123.785 58.0883 123.868 56.1209 124.046 53.5011H123.926L115.446 68.0898H108.422V47.3398H108.424ZM138.709 52.0197V57.8022H143.181V52.0197H148.819V68.0898H143.181V61.9286H138.709V68.0898H133.069V52.0197H138.709ZM168.737 56.1756C168.737 57.1099 168.457 57.8905 167.9 58.505C167.344 59.1152 166.576 59.5087 165.604 59.6665V59.7781C166.781 59.9085 167.678 60.3062 168.303 60.9649C168.93 61.6193 169.24 62.4673 169.24 63.4921C169.24 66.5579 166.704 68.0877 161.62 68.0877H152.719V52.0176H161.648C164.028 52.0176 165.801 52.3564 166.974 53.0403C168.151 53.7178 168.737 54.7657 168.737 56.1756ZM163.512 62.9555C163.512 62.4526 163.339 62.0927 162.994 61.876C162.65 61.6572 162.147 61.5519 161.492 61.5519H158.36V64.4579H161.432C162.823 64.4579 163.512 63.9592 163.512 62.9555ZM163.122 56.9163C163.122 56.0725 162.607 55.6516 161.567 55.6516H158.362V58.0652H161.351C161.948 58.0652 162.391 57.9579 162.686 57.7411C162.975 57.5202 163.122 57.2445 163.122 56.9163ZM180.411 68.3802C177.687 68.3802 175.573 67.669 174.067 66.2444C172.565 64.8198 171.812 62.7913 171.812 60.161C171.812 57.4444 172.507 55.3612 173.904 53.9072C175.297 52.4553 177.287 51.7272 179.874 51.7272C182.337 51.7272 184.239 52.3564 185.583 53.621C186.922 54.8857 187.592 56.7059 187.592 59.0794V61.5498H177.512C177.55 62.4462 177.884 63.1533 178.517 63.6625C179.142 64.1717 180.004 64.4284 181.087 64.4284C182.078 64.4284 182.987 64.3359 183.819 64.1528C184.652 63.9697 185.553 63.6541 186.524 63.208V67.204C185.642 67.6458 184.727 67.9552 183.785 68.1235C182.842 68.294 181.714 68.3802 180.411 68.3802ZM180.073 55.5064C179.414 55.5064 178.858 55.7148 178.408 56.1272C177.961 56.5396 177.7 57.1835 177.627 58.0652H182.467C182.448 57.2887 182.228 56.6701 181.8 56.205C181.37 55.7379 180.798 55.5064 180.073 55.5064ZM198.228 68.3802C195.553 68.3802 193.529 67.669 192.145 66.2486C190.767 64.8304 190.076 62.7913 190.076 60.1316C190.076 57.4634 190.82 55.3949 192.312 53.9261C193.805 52.4574 195.921 51.7272 198.675 51.7272C200.571 51.7272 202.353 52.1354 204.029 52.9477L202.368 57.0488C201.684 56.7585 201.052 56.5207 200.477 56.346C199.901 56.1714 199.3 56.0851 198.675 56.0851C197.759 56.0851 197.055 56.4344 196.553 57.1372C196.056 57.8358 195.804 58.8227 195.804 60.1021C195.804 62.6735 196.769 63.9613 198.705 63.9613C200.359 63.9613 201.945 63.4879 203.462 62.543V66.9599C202.011 67.9068 200.267 68.3802 198.228 68.3802ZM221.873 56.1461H216.496V68.0898H210.852V56.1461H205.475V52.0197H221.876V56.1461H221.873Z" fill="white"/>
<path d="M117.616 36.9684L113.298 22.0219H113.17C113.371 24.5701 113.469 26.546 113.469 27.9559V36.9705H108.422V16.2205H116.011L120.415 30.9544H120.532L124.846 16.2205H132.45V36.9705H127.21V27.8738C127.21 27.3982 127.221 26.8764 127.236 26.2956C127.249 25.7191 127.315 24.305 127.429 22.0535H127.3L123.04 36.9705H117.616V36.9684ZM144.552 37.2588C141.828 37.2588 139.714 36.5475 138.208 35.1229C136.706 33.6984 135.953 31.6699 135.953 29.0396C135.953 26.323 136.648 24.2398 138.046 22.7857C139.441 21.3317 141.428 20.6057 144.015 20.6057C146.478 20.6057 148.38 21.2349 149.724 22.4996C151.063 23.7642 151.733 25.5844 151.733 27.958V30.4284H141.653C141.692 31.3248 142.027 32.0318 142.659 32.5389C143.283 33.0482 144.146 33.3049 145.228 33.3049C146.219 33.3049 147.128 33.2123 147.961 33.0292C148.793 32.8461 149.694 32.5305 150.665 32.0844V36.0804C149.784 36.5202 148.868 36.8316 147.927 36.9999C146.985 37.1704 145.857 37.2588 144.552 37.2588ZM144.216 24.3829C143.557 24.3829 143.001 24.5912 142.552 25.0036C142.105 25.4139 141.843 26.0599 141.769 26.9416H146.609C146.589 26.1673 146.369 25.5465 145.941 25.0815C145.513 24.6164 144.942 24.3829 144.216 24.3829ZM154.249 27.3477C154.249 25.7212 154.397 24.2524 154.688 22.9457C154.983 21.6326 155.467 20.4942 156.132 19.522C156.802 18.5541 157.673 17.7439 158.747 17.0895C159.817 16.4351 161.111 15.9364 162.617 15.5934C164.13 15.2441 166.741 14.92 170.444 14.6191L170.977 19.2106C169.865 19.299 168.341 19.4379 166.418 19.6462C164.492 19.8503 163.214 20.0481 162.585 20.2459C161.954 20.45 161.447 20.7173 161.053 21.0497C160.664 21.3885 160.379 21.8094 160.191 22.3144C159.999 22.8215 159.881 23.4822 159.836 24.2945H160.082C160.418 23.6316 160.989 23.0803 161.796 22.6342C162.603 22.1923 163.51 21.9714 164.509 21.9714C166.548 21.9714 168.123 22.5669 169.233 23.7537C170.335 24.9405 170.892 26.6554 170.892 28.8965C170.892 31.5163 170.153 33.5658 168.675 35.043C167.196 36.5202 165.149 37.2567 162.532 37.2567C159.951 37.2567 157.927 36.3855 156.453 34.6453C154.983 32.903 154.249 30.4726 154.249 27.3477ZM162.825 33.1302C164.383 33.1302 165.164 31.9203 165.164 29.4983C165.164 27.1142 164.449 25.9232 163.026 25.9232C162.466 25.9232 161.869 26.142 161.233 26.5818C160.598 27.0237 160.178 27.4677 159.977 27.9243C159.977 29.473 160.232 30.7272 160.739 31.693C161.255 32.6526 161.948 33.1302 162.825 33.1302ZM182.082 37.2588C179.358 37.2588 177.244 36.5475 175.738 35.1229C174.236 33.6984 173.483 31.6699 173.483 29.0396C173.483 26.323 174.176 24.2398 175.575 22.7857C176.968 21.3317 178.958 20.6057 181.545 20.6057C184.008 20.6057 185.908 21.2349 187.251 22.4996C188.591 23.7642 189.261 25.5844 189.261 27.958V30.4284H179.179C179.219 31.3248 179.553 32.0318 180.184 32.5389C180.811 33.0482 181.671 33.3049 182.754 33.3049C183.745 33.3049 184.656 33.2123 185.488 33.0292C186.321 32.8461 187.222 32.5305 188.193 32.0844V36.0804C187.311 36.5202 186.396 36.8316 185.454 36.9999C184.515 37.1704 183.387 37.2588 182.082 37.2588ZM181.746 24.3829C181.087 24.3829 180.529 24.5912 180.081 25.0036C179.634 25.4139 179.371 26.0599 179.298 26.9416H184.14C184.121 26.1673 183.899 25.5465 183.471 25.0815C183.043 24.6164 182.471 24.3829 181.746 24.3829ZM208.86 36.9684H203.22V25.0247H199.901C199.587 28.4777 199.187 31.0155 198.705 32.6378C198.222 34.2602 197.563 35.4386 196.715 36.1645C195.868 36.8968 194.725 37.2588 193.292 37.2588C192.293 37.2588 191.441 37.1178 190.741 36.8316V32.701C191.056 32.8693 191.479 32.9577 192.012 32.9577C192.447 32.9577 192.795 32.7409 193.067 32.299C193.332 31.8571 193.574 31.1564 193.782 30.1927C193.983 29.2289 194.175 27.9895 194.342 26.4724C194.509 24.9615 194.672 23.1014 194.826 20.8982H208.862V36.9684H208.86ZM218.399 20.8961V26.6786H218.929C221.766 26.6786 223.82 27.0658 225.091 27.8422C226.362 28.6166 226.998 29.8855 226.998 31.6446C226.998 33.49 226.388 34.841 225.166 35.689C223.945 36.5412 222.094 36.9684 219.61 36.9684H212.754V20.8961H218.399ZM221.353 31.8866C221.353 31.329 221.197 30.9271 220.881 30.6809C220.562 30.4347 220.033 30.3126 219.291 30.3126H218.399V33.3343H219.349C220.69 33.3343 221.353 32.8504 221.353 31.8866Z" fill="white"/>
<path fill-rule="evenodd" clip-rule="evenodd" d="M9.68413 73.4762H16.6038H45.6562V81.3945C45.6562 82.2761 44.9223 83 44.0236 83H16.6038H0V28.5736V20.6553C0 19.7715 0.736046 19.0498 1.63257 19.0498H19.3683H29.0524H27.4198C28.3163 19.0498 29.0524 19.7715 29.0524 20.6553V28.5736V48.7407L55.3403 19.0477L63.6294 19.0435C64.3526 19.0435 65.0266 19.6158 65.0266 20.428V34.3434V54.4264H74.7129V34.3434H74.7107V9.52383H48.4249H19.3704V1.60554C19.3704 0.721758 20.1064 0 21.003 0H48.4249H84.397V54.4264V62.3447C84.397 63.2285 83.6631 63.9502 82.7644 63.9502H56.975C56.0764 63.9502 55.3425 63.2285 55.3425 62.3447V54.4264L55.3403 34.2593L29.0545 63.9502L20.7911 63.9523C20.0594 63.9523 19.3683 63.3905 19.3683 62.5698V41.2517V28.5736H9.68413V41.2517V73.4762Z" fill="white"/>
</svg>
