<svg width="120" height="44" viewBox="0 0 120 44" fill="none" xmlns="http://www.w3.org/2000/svg">
<path d="M57.3177 25.0966H60.0018V29.8208C60.0018 30.3239 59.96 31.3256 59.8797 32.8304H59.9419L64.386 25.0966H68.1062V36.0967H65.4379V31.493C65.4379 30.7947 65.482 29.7517 65.5759 28.3628H65.5125L61.03 36.0967H57.3166V25.0966H57.3177ZM73.3273 27.5775V30.6429H75.6913V27.5775H78.6718V36.0967H75.6913V32.8304H73.3273V36.0967H70.3457V27.5775H73.3273ZM89.2012 29.7807C89.2012 30.2759 89.053 30.6898 88.7589 31.0155C88.4648 31.339 88.0588 31.5476 87.5452 31.6313V31.6904C88.1673 31.7596 88.6413 31.9704 88.9716 32.3195C89.303 32.6665 89.467 33.116 89.467 33.6593C89.467 35.2846 88.1266 36.0955 85.4391 36.0955H80.7338V27.5764H85.4538C86.7116 27.5764 87.6493 27.756 88.2691 28.1186C88.8912 28.4777 89.2012 29.0333 89.2012 29.7807ZM86.439 33.3748C86.439 33.1082 86.3474 32.9175 86.1653 32.8026C85.9832 32.6865 85.7174 32.6308 85.3713 32.6308H83.7153V34.1713H85.3396C86.0748 34.1713 86.439 33.9069 86.439 33.3748ZM86.2332 30.1733C86.2332 29.726 85.9606 29.5029 85.4109 29.5029H83.7165V30.7824H85.2966C85.6122 30.7824 85.8463 30.7255 86.0024 30.6106C86.1551 30.4935 86.2332 30.3473 86.2332 30.1733ZM95.3725 36.2506C93.9326 36.2506 92.815 35.8735 92.0187 35.1184C91.2247 34.3632 90.8266 33.2878 90.8266 31.8934C90.8266 30.4533 91.1942 29.349 91.9328 28.5781C92.6691 27.8084 93.7211 27.4225 95.0886 27.4225C96.3904 27.4225 97.396 27.756 98.1063 28.4264C98.8144 29.0968 99.1684 30.0618 99.1684 31.3201V32.6297H93.8398C93.8602 33.1049 94.0366 33.4797 94.3714 33.7496C94.7017 34.0196 95.1575 34.1557 95.7299 34.1557C96.2536 34.1557 96.7343 34.1066 97.1743 34.0095C97.6143 33.9125 98.0905 33.7452 98.604 33.5087V35.627C98.138 35.8613 97.6539 36.0253 97.1562 36.1145C96.6574 36.2049 96.0613 36.2506 95.3725 36.2506ZM95.1937 29.4259C94.8454 29.4259 94.5513 29.5364 94.3137 29.755C94.0773 29.9736 93.9393 30.315 93.9009 30.7824H96.4594C96.4493 30.3708 96.3328 30.0428 96.1065 29.7963C95.8792 29.5486 95.5772 29.4259 95.1937 29.4259ZM104.791 36.2506C103.377 36.2506 102.307 35.8736 101.575 35.1206C100.847 34.3687 100.482 33.2878 100.482 31.8778C100.482 30.4633 100.875 29.3668 101.664 28.5882C102.453 27.8096 103.572 27.4225 105.028 27.4225C106.03 27.4225 106.972 27.6389 107.858 28.0695L106.98 30.2436C106.618 30.0897 106.284 29.9636 105.98 29.871C105.676 29.7784 105.358 29.7327 105.028 29.7327C104.543 29.7327 104.171 29.9179 103.905 30.2904C103.643 30.6608 103.51 31.184 103.51 31.8622C103.51 33.2253 104.02 33.908 105.043 33.908C105.918 33.908 106.756 33.657 107.558 33.1562V35.4976C106.791 35.9996 105.869 36.2506 104.791 36.2506ZM117.291 29.765H114.448V36.0967H111.465V29.765H108.622V27.5775H117.292V29.765H117.291Z" fill="#2D3C38"/>
<path d="M62.1769 19.5972L59.8944 11.6738H59.8265C59.9328 13.0246 59.9849 14.0721 59.9849 14.8195V19.5983H57.3166V8.59832H61.3286L63.6564 16.4091H63.7186L65.9989 8.59832H70.0188V19.5983H67.2488V14.776C67.2488 14.5239 67.2544 14.2472 67.2624 13.9394C67.2691 13.6337 67.3042 12.8841 67.3642 11.6905H67.2963L65.0443 19.5983H62.1769V19.5972ZM76.4163 19.7511C74.9764 19.7511 73.8589 19.3741 73.0626 18.6189C72.2686 17.8637 71.8705 16.7884 71.8705 15.394C71.8705 13.9539 72.2381 12.8495 72.9767 12.0787C73.7141 11.3079 74.7649 10.923 76.1324 10.923C77.4343 10.923 78.4399 11.2566 79.1502 11.927C79.8583 12.5974 80.2123 13.5623 80.2123 14.8206V16.1302H74.8837C74.9041 16.6054 75.0816 16.9802 75.4153 17.2491C75.7456 17.519 76.2014 17.6551 76.7738 17.6551C77.2975 17.6551 77.7782 17.606 78.2182 17.509C78.6582 17.4119 79.1344 17.2446 79.6479 17.0081V19.1265C79.1819 19.3596 78.6978 19.5247 78.2001 19.6139C77.7024 19.7043 77.1063 19.7511 76.4163 19.7511ZM76.2388 12.9254C75.8904 12.9254 75.5963 13.0358 75.3588 13.2544C75.1224 13.472 74.9844 13.8144 74.9448 14.2818H77.5033C77.4932 13.8713 77.3766 13.5422 77.1504 13.2957C76.9242 13.0492 76.6222 12.9254 76.2388 12.9254ZM81.5425 14.4971C81.5425 13.6348 81.6205 12.8562 81.7744 12.1635C81.9305 11.4674 82.1861 10.8639 82.5379 10.3485C82.8919 9.83541 83.3522 9.40594 83.9201 9.05902C84.4856 8.7121 85.1699 8.44773 85.9662 8.2659C86.7659 8.08073 88.1458 7.90894 90.1038 7.74942L90.3854 10.1835C89.7973 10.2303 88.9919 10.3039 87.9751 10.4144C86.9571 10.5226 86.2818 10.6274 85.9493 10.7323C85.6156 10.8405 85.3475 10.9822 85.1394 11.1584C84.9335 11.338 84.7831 11.5611 84.6836 11.8288C84.5818 12.0977 84.5195 12.4479 84.4958 12.8785H84.6259C84.8034 12.5271 85.1055 12.2349 85.5319 11.9984C85.9583 11.7641 86.4379 11.647 86.9661 11.647C88.0441 11.647 88.8765 11.9627 89.4636 12.5918C90.0461 13.221 90.3402 14.1301 90.3402 15.3181C90.3402 16.7069 89.95 17.7934 89.1684 18.5765C88.3868 19.3596 87.3043 19.75 85.921 19.75C84.5569 19.75 83.4868 19.2882 82.7075 18.3657C81.9305 17.442 81.5425 16.1536 81.5425 14.4971ZM86.0759 17.5625C86.8994 17.5625 87.3122 16.9211 87.3122 15.6372C87.3122 14.3733 86.9344 13.7419 86.1823 13.7419C85.8859 13.7419 85.5703 13.8579 85.2344 14.0911C84.8985 14.3253 84.6768 14.5607 84.5704 14.8028C84.5704 15.6238 84.705 16.2886 84.9731 16.8006C85.2457 17.3093 85.6122 17.5625 86.0759 17.5625ZM96.2558 19.7511C94.8159 19.7511 93.6984 19.3741 92.9021 18.6189C92.1081 17.8637 91.7099 16.7884 91.7099 15.394C91.7099 13.9539 92.0764 12.8495 92.8162 12.0787C93.5525 11.3079 94.6044 10.923 95.9719 10.923C97.2738 10.923 98.2782 11.2566 98.9886 11.927C99.6966 12.5974 100.051 13.5623 100.051 14.8206V16.1302H94.7209C94.7424 16.6054 94.9189 16.9802 95.2526 17.2491C95.584 17.519 96.0387 17.6551 96.611 17.6551C97.1347 17.6551 97.6166 17.606 98.0566 17.509C98.4966 17.4119 98.9727 17.2446 99.4863 17.0081V19.1265C99.0203 19.3596 98.5361 19.5247 98.0385 19.6139C97.5419 19.7043 96.9458 19.7511 96.2558 19.7511ZM96.0783 12.9254C95.7299 12.9254 95.4347 13.0358 95.1983 13.2544C94.9619 13.472 94.8227 13.8144 94.7843 14.2818H97.344C97.3338 13.8713 97.2161 13.5422 96.9899 13.2957C96.7637 13.0492 96.4617 12.9254 96.0783 12.9254ZM110.412 19.5972H107.43V13.2656H105.676C105.509 15.0961 105.298 16.4414 105.043 17.3015C104.788 18.1615 104.439 18.7862 103.991 19.1711C103.544 19.5593 102.94 19.7511 102.182 19.7511C101.653 19.7511 101.203 19.6764 100.833 19.5247V17.335C101 17.4242 101.224 17.471 101.505 17.471C101.735 17.471 101.919 17.3562 102.063 17.1219C102.203 16.8876 102.331 16.5162 102.441 16.0053C102.547 15.4944 102.649 14.8373 102.737 14.0331C102.825 13.2321 102.911 12.246 102.993 11.0781H110.413V19.5972H110.412ZM115.454 11.077V14.1424H115.735C117.234 14.1424 118.32 14.3476 118.992 14.7593C119.664 15.1698 120 15.8424 120 16.775C120 17.7533 119.678 18.4694 119.032 18.919C118.386 19.3708 117.407 19.5972 116.094 19.5972H112.47V11.077H115.454ZM117.016 16.9033C117.016 16.6076 116.933 16.3946 116.766 16.2641C116.598 16.1336 116.318 16.0689 115.926 16.0689H115.454V17.6707H115.956C116.665 17.6707 117.016 17.4142 117.016 16.9033Z" fill="#2D3C38"/>
<path fill-rule="evenodd" clip-rule="evenodd" d="M5.11936 38.9512H8.77734H24.1354V43.1489C24.1354 43.6163 23.7474 44 23.2724 44H8.77734H0V15.1475V10.9498C0 10.4813 0.389099 10.0987 0.86303 10.0987H10.2387H15.3581H14.495C14.969 10.0987 15.3581 10.4813 15.3581 10.9498V15.1475V25.8385L29.2548 10.0976L33.6367 10.0953C34.019 10.0953 34.3753 10.3987 34.3753 10.8293V18.2062V28.8526H39.4957V18.2062H39.4946V5.04878H25.5991H10.2398V0.851131C10.2398 0.382619 10.6289 0 11.1029 0H25.5991H44.6151V28.8526V33.0502C44.6151 33.5187 44.2271 33.9013 43.7521 33.9013H30.1189C29.6439 33.9013 29.2559 33.5187 29.2559 33.0502V28.8526L29.2548 18.1615L15.3592 33.9013L10.9909 33.9024C10.6041 33.9024 10.2387 33.6046 10.2387 33.1696V21.8684V15.1475H5.11936V21.8684V38.9512Z" fill="#2D3C38"/>
</svg>
