<svg width="40" height="40" viewBox="0 0 40 40" fill="none" xmlns="http://www.w3.org/2000/svg">
<rect width="40" height="40" rx="5" fill="#38524B"/>
<circle cx="20" cy="20" r="14" fill="white"/>
<path d="M27 17.5C27 24.25 20 29.5 20 29.5C20 29.5 13 24.25 13 17.5C13 15.5109 13.7375 13.6032 15.0503 12.1967C16.363 10.7902 18.1435 10 20 10C21.8565 10 23.637 10.7902 24.9497 12.1967C26.2625 13.6032 27 15.5109 27 17.5Z" fill="#38524B" stroke="#38524B" stroke-width="1.60714" stroke-linecap="round" stroke-linejoin="round"/>
<path d="M20 21C21.6569 21 23 19.6569 23 18C23 16.3431 21.6569 15 20 15C18.3431 15 17 16.3431 17 18C17 19.6569 18.3431 21 20 21Z" stroke="white" stroke-width="1.60714" stroke-linecap="round" stroke-linejoin="round"/>
</svg>
