<svg width="40" height="40" viewBox="0 0 40 40" fill="none" xmlns="http://www.w3.org/2000/svg">
<path d="M19.2766 0.758093C19.6705 0.345268 20.3295 0.345269 20.7234 0.758093L21.9566 2.0503C22.275 2.38392 22.7802 2.45657 23.1797 2.22615L24.7269 1.33371C25.2212 1.0486 25.8535 1.23425 26.1152 1.74134L26.9344 3.32863C27.1458 3.73843 27.6101 3.95047 28.0583 3.84194L29.7944 3.42155C30.349 3.28725 30.9033 3.64352 31.0116 4.2038L31.3503 5.95757C31.4378 6.41036 31.8236 6.74462 32.2842 6.76675L34.0683 6.85249C34.6383 6.87988 35.0698 7.3779 35.0158 7.94597L34.8468 9.72414C34.8031 10.1832 35.0791 10.6126 35.5148 10.7636L37.2025 11.3486C37.7417 11.5354 38.0154 12.1348 37.8036 12.6647L37.1404 14.3232C36.9692 14.7514 37.113 15.2412 37.4885 15.5088L38.9431 16.5455C39.4078 16.8767 39.5016 17.529 39.149 17.9777L38.0455 19.3822C37.7605 19.7448 37.7605 20.2552 38.0455 20.6178L39.149 22.0223C39.5016 22.471 39.4078 23.1233 38.9431 23.4545L37.4885 24.4912C37.113 24.7588 36.9692 25.2486 37.1404 25.6768L37.8036 27.3353C38.0154 27.8652 37.7417 28.4646 37.2025 28.6514L35.5148 29.2364C35.0791 29.3874 34.8031 29.8168 34.8468 30.2759L35.0158 32.054C35.0698 32.6221 34.6383 33.1201 34.0683 33.1475L32.2842 33.2332C31.8236 33.2554 31.4378 33.5896 31.3503 34.0424L31.0116 35.7962C30.9033 36.3565 30.349 36.7127 29.7944 36.5784L28.0583 36.1581C27.6101 36.0495 27.1458 36.2616 26.9344 36.6714L26.1152 38.2587C25.8535 38.7657 25.2212 38.9514 24.7269 38.6663L23.1797 37.7738C22.7802 37.5434 22.275 37.6161 21.9566 37.9497L20.7234 39.2419C20.3295 39.6547 19.6705 39.6547 19.2766 39.2419L18.0434 37.9497C17.725 37.6161 17.2198 37.5434 16.8203 37.7738L15.2731 38.6663C14.7788 38.9514 14.1465 38.7657 13.8848 38.2587L13.0656 36.6714C12.8542 36.2616 12.3899 36.0495 11.9417 36.1581L10.2056 36.5784C9.65103 36.7127 9.09667 36.3565 8.98844 35.7962L8.64967 34.0424C8.5622 33.5896 8.17645 33.2554 7.71582 33.2332L5.93169 33.1475C5.36171 33.1201 4.93018 32.6221 4.98418 32.054L5.15323 30.2759C5.19687 29.8168 4.92091 29.3874 4.48518 29.2364L2.79748 28.6514C2.2583 28.4646 1.98455 27.8652 2.19642 27.3353L2.85958 25.6768C3.0308 25.2486 2.88699 24.7588 2.51145 24.4912L1.0569 23.4545C0.592216 23.1233 0.498434 22.471 0.850991 22.0223L1.95455 20.6178C2.23947 20.2552 2.23947 19.7448 1.95455 19.3822L0.850992 17.9777C0.498435 17.529 0.592216 16.8767 1.05691 16.5455L2.51145 15.5088C2.88699 15.2412 3.0308 14.7514 2.85958 14.3232L2.19642 12.6647C1.98455 12.1348 2.2583 11.5354 2.79748 11.3486L4.48518 10.7636C4.92091 10.6126 5.19687 10.1832 5.15323 9.72414L4.98418 7.94597C4.93018 7.3779 5.36171 6.87988 5.93169 6.85249L7.71582 6.76675C8.17645 6.74462 8.5622 6.41036 8.64967 5.95757L8.98844 4.2038C9.09667 3.64352 9.65103 3.28725 10.2056 3.42155L11.9417 3.84194C12.3899 3.95047 12.8542 3.73843 13.0656 3.32863L13.8848 1.74134C14.1465 1.23425 14.7788 1.0486 15.2731 1.33371L16.8203 2.22615C17.2198 2.45657 17.725 2.38392 18.0434 2.0503L19.2766 0.758093Z" fill="#00AEBD"/>
<path d="M26.9607 30.3871V25.2247H24.8281V24.4258H30.0028V25.2247H27.8702V30.3871H26.9607Z" fill="white"/>
<path d="M21.3146 30.5722C20.6877 30.5722 20.1346 30.4411 19.6553 30.1789C19.1759 29.9167 18.801 29.55 18.5306 29.0788C18.2602 28.6035 18.125 28.0525 18.125 27.4256C18.125 26.9709 18.2008 26.5489 18.3524 26.1596C18.5081 25.7704 18.7252 25.4324 19.0038 25.1456C19.2865 24.8588 19.6143 24.6376 19.9871 24.4819C20.3641 24.3221 20.7738 24.2422 21.2163 24.2422C21.6874 24.2422 22.1074 24.3262 22.4761 24.4942C22.8449 24.6621 23.1521 24.8957 23.398 25.1948C23.6479 25.4938 23.8261 25.8462 23.9326 26.2518C24.0433 26.6533 24.0719 27.0876 24.0187 27.5547H19.0653C19.0448 27.9972 19.1267 28.3843 19.3111 28.7162C19.4955 29.044 19.7659 29.3 20.1223 29.4844C20.4788 29.6688 20.9028 29.761 21.3945 29.761C21.7181 29.761 22.0377 29.7057 22.3532 29.595C22.6728 29.4844 22.9493 29.3267 23.1829 29.1218L23.6253 29.8286C23.4246 29.9925 23.1931 30.1318 22.9309 30.2465C22.6728 30.3571 22.4044 30.439 22.1258 30.4923C21.8513 30.5456 21.5809 30.5722 21.3146 30.5722ZM19.1083 26.7988H23.0845C23.064 26.2457 22.894 25.8134 22.5744 25.502C22.259 25.1907 21.8021 25.035 21.204 25.035C20.6263 25.035 20.1469 25.1907 19.7659 25.502C19.389 25.8134 19.1698 26.2457 19.1083 26.7988Z" fill="white"/>
<path d="M11.073 30.4608L10.7227 29.6127C11.1406 29.5062 11.4458 29.3321 11.6384 29.0903C11.835 28.8445 11.96 28.4962 12.0132 28.0456C12.0665 27.5949 12.0931 27.007 12.0931 26.2818V24.4258H16.6532V30.3871H15.7436V25.2247H12.972V26.2818C12.972 26.9414 12.9453 27.5088 12.8921 27.9841C12.8429 28.4594 12.7507 28.8609 12.6155 29.1887C12.4803 29.5164 12.2877 29.7827 12.0378 29.9876C11.792 30.1883 11.4704 30.3461 11.073 30.4608Z" fill="white"/>
<path d="M25.0519 21.0991C24.3011 21.0991 23.6337 20.9505 23.0498 20.6533C22.4658 20.3561 21.9731 19.9442 21.5716 19.4176C21.1754 18.891 20.873 18.2836 20.6644 17.5954C20.4558 16.9071 20.3516 16.172 20.3516 15.3899C20.3516 14.6026 20.4558 13.8648 20.6644 13.1766C20.873 12.4883 21.1754 11.8835 21.5716 11.3621C21.9731 10.8355 22.4658 10.4236 23.0498 10.1265C23.6337 9.82926 24.3011 9.68066 25.0519 9.68066C25.8079 9.68066 26.4779 9.82926 27.0618 10.1265C27.6458 10.4236 28.1359 10.8355 28.5322 11.3621C28.9336 11.8835 29.2387 12.4883 29.4472 13.1766C29.6558 13.8648 29.76 14.6026 29.76 15.3899C29.76 16.172 29.6558 16.9071 29.4472 17.5954C29.2387 18.2836 28.9336 18.891 28.5322 19.4176C28.1359 19.9442 27.6458 20.3561 27.0618 20.6533C26.4779 20.9505 25.8079 21.0991 25.0519 21.0991ZM25.0519 18.6512C25.3595 18.6512 25.6332 18.5808 25.8731 18.44C26.1181 18.2992 26.3293 18.0933 26.5066 17.8222C26.6838 17.5458 26.8168 17.2043 26.9054 16.7976C26.9993 16.391 27.0462 15.9217 27.0462 15.3899C27.0462 14.6808 26.9628 14.0838 26.7959 13.5989C26.6343 13.1088 26.4049 12.7412 26.1077 12.4962C25.8105 12.2511 25.4586 12.1286 25.0519 12.1286C24.7547 12.1286 24.4836 12.199 24.2385 12.3398C23.9935 12.4805 23.7823 12.6891 23.605 12.9654C23.4278 13.2365 23.2922 13.5754 23.1983 13.9821C23.1045 14.3836 23.0576 14.8529 23.0576 15.3899C23.0576 16.099 23.141 16.696 23.3078 17.1809C23.4747 17.6657 23.7067 18.0333 24.0039 18.2836C24.3011 18.5286 24.6504 18.6512 25.0519 18.6512Z" fill="white"/>
<path d="M11.0354 20.8645V19.0109L13.3504 16.9541C14.0594 16.318 14.6069 15.7966 14.9927 15.3899C15.3838 14.9832 15.6549 14.6339 15.8061 14.3419C15.9625 14.0447 16.0407 13.7449 16.0407 13.4425C16.0407 12.9993 15.8947 12.6604 15.6028 12.4258C15.3108 12.1912 14.8937 12.0738 14.3514 12.0738C13.8717 12.0738 13.4129 12.1703 12.975 12.3632C12.5422 12.5561 12.1485 12.8403 11.794 13.2157L10.8242 11.1353C11.3404 10.6713 11.9322 10.3142 12.5996 10.0639C13.2669 9.8084 13.9421 9.68066 14.6251 9.68066C15.4542 9.68066 16.1711 9.82405 16.7759 10.1108C17.3859 10.3924 17.8552 10.7886 18.1836 11.2996C18.5173 11.8105 18.6842 12.3997 18.6842 13.0671C18.6842 13.5155 18.5955 13.9508 18.4183 14.3732C18.241 14.7955 17.9308 15.2674 17.4876 15.7887C17.0496 16.3101 16.4344 16.9488 15.6419 17.7049L14.7659 18.526H18.9735V20.8645H11.0354Z" fill="white"/>
</svg>
