<svg width="100" height="37" viewBox="0 0 100 37" fill="none" xmlns="http://www.w3.org/2000/svg">
<path d="M47.7627 21.1035H49.9994V25.0761C49.9994 25.4992 49.9645 26.3415 49.8976 27.6069H49.9494L53.6528 21.1035H56.753V30.3535H54.5294V26.4822C54.5294 25.895 54.5662 25.018 54.6444 23.8501H54.5916L50.8562 30.3535H47.7617V21.1035H47.7627ZM61.1039 23.1897V25.7674H63.0739V23.1897H65.5576V30.3535H63.0739V27.6069H61.1039V30.3535H58.6193V23.1897H61.1039ZM74.3321 25.0423C74.3321 25.4588 74.2086 25.8068 73.9635 26.0807C73.7184 26.3528 73.3801 26.5282 72.9521 26.5985V26.6483C73.4705 26.7064 73.8655 26.8837 74.1407 27.1773C74.4169 27.469 74.5536 27.8471 74.5536 28.3039C74.5536 29.6706 73.4366 30.3526 71.197 30.3526H67.2759V23.1888H71.2093C72.2574 23.1888 73.0388 23.3398 73.5554 23.6447C74.0738 23.9467 74.3321 24.4139 74.3321 25.0423ZM72.0303 28.0647C72.0303 27.8405 71.9539 27.6801 71.8022 27.5835C71.6504 27.4859 71.4289 27.439 71.1405 27.439H69.7606V28.7345H71.1141C71.7268 28.7345 72.0303 28.5121 72.0303 28.0647ZM71.8587 25.3725C71.8587 24.9964 71.6316 24.8088 71.1735 24.8088H69.7615V25.8847H71.0783C71.3413 25.8847 71.5364 25.8369 71.6665 25.7402C71.7937 25.6417 71.8587 25.5189 71.8587 25.3725ZM79.4748 30.483C78.2749 30.483 77.3436 30.1659 76.68 29.5309C76.0183 28.8958 75.6866 27.9915 75.6866 26.819C75.6866 25.608 75.9929 24.6793 76.6084 24.0311C77.222 23.3839 78.0986 23.0593 79.2382 23.0593C80.3231 23.0593 81.161 23.3398 81.753 23.9036C82.343 24.4673 82.6381 25.2787 82.6381 26.3368V27.4381H78.1976C78.2145 27.8377 78.3616 28.1529 78.6406 28.3799C78.9158 28.6069 79.2957 28.7213 79.7726 28.7213C80.209 28.7213 80.6096 28.6801 80.9763 28.5984C81.343 28.5168 81.7398 28.3761 82.1677 28.1773V29.9586C81.7794 30.1556 81.3759 30.2935 80.9612 30.3685C80.5455 30.4445 80.0488 30.483 79.4748 30.483ZM79.3258 24.744C79.0355 24.744 78.7905 24.8369 78.5925 25.0208C78.3955 25.2046 78.2805 25.4917 78.2485 25.8847H80.3806C80.3721 25.5386 80.275 25.2628 80.0865 25.0555C79.8971 24.8472 79.6454 24.744 79.3258 24.744ZM87.3236 30.483C86.1454 30.483 85.2537 30.1659 84.6439 29.5327C84.0369 28.9005 83.7324 27.9915 83.7324 26.8059C83.7324 25.6164 84.0604 24.6943 84.7174 24.0396C85.3753 23.3848 86.3075 23.0593 87.5206 23.0593C88.3558 23.0593 89.1409 23.2413 89.879 23.6034L89.1475 25.4316C88.8459 25.3022 88.5678 25.1962 88.3143 25.1183C88.0607 25.0405 87.7959 25.002 87.5206 25.002C87.1172 25.002 86.8071 25.1577 86.5856 25.471C86.3669 25.7825 86.2557 26.2224 86.2557 26.7927C86.2557 27.939 86.6808 28.5131 87.5338 28.5131C88.2624 28.5131 88.9609 28.302 89.6292 27.8808V29.8498C88.9901 30.2719 88.2219 30.483 87.3236 30.483ZM97.7401 25.0292H95.3714V30.3535H92.8848V25.0292H90.5161V23.1897H97.741V25.0292H97.7401Z" fill="white"/>
<path d="M51.8159 16.4795L49.9138 9.81662H49.8572C49.9458 10.9526 49.9892 11.8334 49.9892 12.4619V16.4804H47.7656V7.23045H51.109L53.0488 13.7986H53.1006L55.0009 7.23045H58.3508V16.4804H56.0424V12.4253C56.0424 12.2133 56.0471 11.9807 56.0537 11.7218C56.0594 11.4648 56.0886 10.8344 56.1386 9.83069H56.082L54.2053 16.4804H51.8159V16.4795ZM63.682 16.609C62.4821 16.609 61.5508 16.2919 60.8873 15.6569C60.2256 15.0218 59.8938 14.1175 59.8938 12.945C59.8938 11.734 60.2001 10.8053 60.8156 10.1571C61.4302 9.50894 62.3058 9.18532 63.4454 9.18532C64.5303 9.18532 65.3683 9.4658 65.9602 10.0296C66.5503 10.5933 66.8453 11.4047 66.8453 12.4628V13.5641H62.4048C62.4218 13.9637 62.5698 14.2789 62.8478 14.5049C63.1231 14.7319 63.5029 14.8464 63.9799 14.8464C64.4163 14.8464 64.8169 14.8051 65.1835 14.7235C65.5502 14.6419 65.947 14.5012 66.375 14.3023V16.0837C65.9866 16.2797 65.5832 16.4185 65.1685 16.4936C64.7537 16.5696 64.257 16.609 63.682 16.609ZM63.534 10.8691C63.2437 10.8691 62.9986 10.962 62.8007 11.1458C62.6037 11.3287 62.4887 11.6167 62.4557 12.0098H64.5878C64.5793 11.6646 64.4823 11.3878 64.2937 11.1805C64.1052 10.9732 63.8536 10.8691 63.534 10.8691ZM67.9538 12.1908C67.9538 11.4657 68.0188 10.8109 68.147 10.2284C68.2771 9.64309 68.4901 9.1356 68.7832 8.70223C69.0783 8.27073 69.4619 7.90959 69.9351 7.61786C70.4064 7.32613 70.9766 7.10381 71.6402 6.95091C72.3066 6.7952 73.4565 6.65074 75.0881 6.5166L75.3228 8.5634C74.8327 8.6028 74.1616 8.66471 73.3142 8.75757C72.4659 8.84856 71.9032 8.93674 71.6261 9.02492C71.348 9.11591 71.1246 9.23504 70.9512 9.38325C70.7796 9.53427 70.6543 9.72188 70.5713 9.94701C70.4865 10.1731 70.4346 10.4676 70.4148 10.8297H70.5232C70.6712 10.5342 70.9229 10.2885 71.2782 10.0896C71.6336 9.8926 72.0333 9.79411 72.4734 9.79411C73.3717 9.79411 74.0655 10.0596 74.5546 10.5886C75.0401 11.1177 75.2851 11.8822 75.2851 12.8812C75.2851 14.0491 74.96 14.9627 74.3086 15.6212C73.6573 16.2797 72.7553 16.608 71.6025 16.608C70.4657 16.608 69.5741 16.2197 68.9246 15.4439C68.2771 14.6672 67.9538 13.5838 67.9538 12.1908ZM71.7316 14.7685C72.4178 14.7685 72.7619 14.2292 72.7619 13.1495C72.7619 12.0867 72.447 11.5557 71.8202 11.5557C71.5733 11.5557 71.3103 11.6533 71.0303 11.8494C70.7504 12.0463 70.5657 12.2443 70.4771 12.4478C70.4771 13.1382 70.5892 13.6973 70.8126 14.1278C71.0398 14.5556 71.3452 14.7685 71.7316 14.7685ZM80.2148 16.609C79.0149 16.609 78.0837 16.2919 77.4201 15.6569C76.7584 15.0218 76.4266 14.1175 76.4266 12.945C76.4266 11.734 76.732 10.8053 77.3485 10.1571C77.9621 9.50894 78.8387 9.18532 79.9782 9.18532C81.0632 9.18532 81.9002 9.4658 82.4921 10.0296C83.0822 10.5933 83.3772 11.4047 83.3772 12.4628V13.5641H78.9358C78.9537 13.9637 79.1007 14.2789 79.3788 14.5049C79.6549 14.7319 80.0339 14.8464 80.5108 14.8464C80.9472 14.8464 81.3488 14.8051 81.7154 14.7235C82.0821 14.6419 82.4789 14.5012 82.9068 14.3023V16.0837C82.5185 16.2797 82.1151 16.4185 81.7003 16.4936C81.2865 16.5696 80.7898 16.609 80.2148 16.609ZM80.0669 10.8691C79.7765 10.8691 79.5305 10.962 79.3335 11.1458C79.1365 11.3287 79.0206 11.6167 78.9885 12.0098H81.1216C81.1131 11.6646 81.0151 11.3878 80.8266 11.1805C80.6381 10.9732 80.3864 10.8691 80.0669 10.8691ZM92.0112 16.4795H89.5266V11.1552H88.0646C87.9261 12.6945 87.7498 13.8258 87.5377 14.549C87.3247 15.2723 87.0344 15.7976 86.6611 16.1212C86.2879 16.4476 85.7845 16.609 85.153 16.609C84.7128 16.609 84.3377 16.5461 84.0294 16.4185V14.5772C84.168 14.6522 84.3546 14.6916 84.5893 14.6916C84.7807 14.6916 84.9343 14.595 85.054 14.398C85.1709 14.201 85.2774 13.8886 85.3689 13.459C85.4575 13.0294 85.5423 12.4769 85.6158 11.8006C85.6893 11.1271 85.761 10.2978 85.8288 9.31571H92.0121V16.4795H92.0112ZM96.2132 9.31477V11.8925H96.447C97.6968 11.8925 98.6017 12.0651 99.1616 12.4112C99.7215 12.7564 100.001 13.3221 100.001 14.1063C100.001 14.9289 99.7328 15.5312 99.1946 15.9092C98.6564 16.2891 97.841 16.4795 96.7467 16.4795H93.7267V9.31477H96.2132ZM97.5149 14.2141C97.5149 13.9656 97.4461 13.7864 97.3066 13.6767C97.1662 13.5669 96.9333 13.5125 96.6063 13.5125H96.2132V14.8595H96.6317C97.2227 14.8595 97.5149 14.6438 97.5149 14.2141Z" fill="white"/>
<path fill-rule="evenodd" clip-rule="evenodd" d="M4.26611 32.7544H7.31441H20.1127V36.2843C20.1127 36.6773 19.7894 37 19.3936 37H7.31441H0V12.7376V9.20779C0 8.81381 0.324247 8.49206 0.719188 8.49206H8.53222H12.7983H12.0791C12.4741 8.49206 12.7983 8.81381 12.7983 9.20779V12.7376V21.7278L24.3789 8.49113L28.0304 8.48925C28.349 8.48925 28.6459 8.7444 28.6459 9.10648V15.3097V24.2624H32.913V15.3097H32.912V4.24556H21.3324H8.53316V0.715724C8.53316 0.321748 8.85741 0 9.25235 0H21.3324H37.1791V24.2624V27.7922C37.1791 28.1862 36.8558 28.5079 36.4599 28.5079H25.099C24.7031 28.5079 24.3798 28.1862 24.3798 27.7922V24.2624L24.3789 15.2722L12.7993 28.5079L9.15904 28.5089C8.83667 28.5089 8.53222 28.2584 8.53222 27.8926V18.3893V12.7376H4.26611V18.3893V32.7544Z" fill="white"/>
</svg>
