<svg width="20" height="20" viewBox="0 0 20 20" fill="none" xmlns="http://www.w3.org/2000/svg">
<g clip-path="url(#clip0_2697_11785)">
<path d="M6.08394 20.1016L3.58394 15.7714L7.91406 13.2714" stroke="#2D3C38" stroke-width="1.5" stroke-linecap="round" stroke-linejoin="round"/>
<path d="M3.31108 11.1172C3.01357 9.51851 3.24371 7.86643 3.96683 6.40992C4.68994 4.9534 5.86686 3.77137 7.32022 3.04193C8.77358 2.31249 10.4246 2.07517 12.0246 2.36574C13.6246 2.6563 15.0868 3.459 16.1908 4.65289C17.2949 5.84677 17.9811 7.36715 18.1459 8.98491C18.3107 10.6027 17.9452 12.2302 17.1046 13.6222C16.264 15.0142 14.9937 16.0953 13.4852 16.7025C11.9767 17.3097 10.3117 17.4102 8.74106 16.9889L3.58297 15.7715" stroke="#2D3C38" stroke-width="1.5" stroke-linecap="round" stroke-linejoin="round"/>
<path d="M9.8545 14V8.973H7.726V8.0765H13.402V8.973H11.2735V14H9.8545ZM7.726 7.1965V6.3H13.402V7.1965H7.726Z" fill="#2D3C38"/>
</g>
<defs>
<clipPath id="clip0_2697_11785">
<rect width="20" height="20" fill="white"/>
</clipPath>
</defs>
</svg>
