<svg width="30" height="30" viewBox="0 0 30 30" fill="none" xmlns="http://www.w3.org/2000/svg">
<g clip-path="url(#clip0_2782_11791)">
<path d="M9.1259 30.1528L5.3759 23.6576L11.8711 19.9076" stroke="#2D3C38" stroke-width="2.25" stroke-linecap="round" stroke-linejoin="round"/>
<path d="M4.96662 16.6758C4.52035 14.2778 4.86556 11.7996 5.95024 9.61488C7.03492 7.43011 8.80028 5.65705 10.9803 4.56289C13.1604 3.46874 15.637 3.11276 18.0369 3.54861C20.4369 3.98445 22.6302 5.18851 24.2863 6.97933C25.9424 8.77015 26.9716 11.0507 27.2188 13.4774C27.466 15.904 26.9178 18.3453 25.6569 20.4333C24.3959 22.5213 22.4905 24.1429 20.2277 25.0537C17.965 25.9646 15.4675 26.1154 13.1116 25.4833L5.37446 23.6572" stroke="#2D3C38" stroke-width="2.25" stroke-linecap="round" stroke-linejoin="round"/>
<path d="M14.7818 20.5V12.9595H11.589V11.6147H20.103V12.9595H16.9103V20.5H14.7818ZM11.589 10.2947V8.95H20.103V10.2947H11.589Z" fill="#2D3C38"/>
</g>
<defs>
<clipPath id="clip0_2782_11791">
<rect width="30" height="30" fill="white"/>
</clipPath>
</defs>
</svg>
