<svg width="40" height="40" viewBox="0 0 40 40" fill="none" xmlns="http://www.w3.org/2000/svg">
<rect width="40" height="40" rx="10" fill="#4577FF"/>
<path d="M29.3902 27.8341V30.7508C29.3913 31.0215 29.3359 31.2895 29.2274 31.5376C29.1189 31.7857 28.9598 32.0084 28.7603 32.1915C28.5608 32.3745 28.3252 32.5139 28.0687 32.6006C27.8122 32.6873 27.5405 32.7196 27.2708 32.6952C24.2791 32.3701 21.4054 31.3478 18.8806 29.7105C16.5315 28.2178 14.54 26.2262 13.0473 23.8772C11.4042 21.3409 10.3817 18.4532 10.0626 15.4481C10.0383 15.1792 10.0702 14.9083 10.1564 14.6525C10.2426 14.3966 10.381 14.1615 10.563 13.9622C10.745 13.7628 10.9665 13.6035 11.2135 13.4944C11.4604 13.3854 11.7273 13.3289 11.9973 13.3287H14.9139C15.3858 13.324 15.8432 13.4911 16.2009 13.7988C16.5587 14.1064 16.7923 14.5337 16.8584 15.0009C16.9815 15.9343 17.2098 16.8507 17.5389 17.7328C17.6697 18.0808 17.698 18.459 17.6205 18.8225C17.543 19.1861 17.3628 19.5198 17.1014 19.7842L15.8667 21.0189C17.2507 23.4529 19.266 25.4682 21.7 26.8522L22.9347 25.6175C23.199 25.3561 23.5328 25.1759 23.8963 25.0984C24.2599 25.0208 24.6381 25.0492 24.9861 25.18C25.8681 25.5091 26.7846 25.7374 27.718 25.8605C28.1903 25.9271 28.6216 26.165 28.9299 26.5289C29.2382 26.8928 29.4021 27.3573 29.3902 27.8341Z" fill="white"/>
<path d="M16.9727 10.4863V10.4863C19.1822 11.0387 20.9074 12.7639 21.4598 14.9735V14.9735" stroke="white" stroke-width="1.79486" stroke-linecap="round"/>
<path d="M16.9727 6V6C21.3917 7.10477 24.8422 10.5552 25.947 14.9743V14.9743" stroke="white" stroke-width="1.79486" stroke-linecap="round"/>
</svg>
