<svg width="44" height="44" viewBox="0 0 44 44" fill="none" xmlns="http://www.w3.org/2000/svg">
<rect x="1.25" y="1.25" width="41.5" height="41.5" rx="10.75" fill="#FAFAFA"/>
<rect x="1.25" y="1.25" width="41.5" height="41.5" rx="10.75" stroke="white" stroke-width="1.5"/>
<rect x="2" y="2" width="40" height="40" rx="10" fill="#4577FF"/>
<path d="M31.3902 29.8341V32.7508C31.3913 33.0215 31.3359 33.2895 31.2274 33.5376C31.1189 33.7857 30.9598 34.0084 30.7603 34.1915C30.5608 34.3745 30.3252 34.5139 30.0687 34.6006C29.8122 34.6873 29.5405 34.7196 29.2708 34.6952C26.2791 34.3701 23.4054 33.3478 20.8806 31.7105C18.5315 30.2178 16.54 28.2262 15.0473 25.8772C13.4042 23.3409 12.3817 20.4532 12.0626 17.4481C12.0383 17.1792 12.0702 16.9083 12.1564 16.6525C12.2426 16.3966 12.381 16.1615 12.563 15.9622C12.745 15.7628 12.9665 15.6035 13.2135 15.4944C13.4604 15.3854 13.7273 15.3289 13.9973 15.3287H16.9139C17.3858 15.324 17.8432 15.4911 18.2009 15.7988C18.5587 16.1064 18.7923 16.5337 18.8584 17.0009C18.9815 17.9343 19.2098 18.8507 19.5389 19.7328C19.6697 20.0808 19.698 20.459 19.6205 20.8225C19.543 21.1861 19.3628 21.5198 19.1014 21.7842L17.8667 23.0189C19.2507 25.4529 21.266 27.4682 23.7 28.8522L24.9347 27.6175C25.199 27.3561 25.5328 27.1759 25.8963 27.0984C26.2599 27.0208 26.6381 27.0492 26.9861 27.18C27.8681 27.5091 28.7846 27.7374 29.718 27.8605C30.1903 27.9271 30.6216 28.165 30.9299 28.5289C31.2382 28.8928 31.4021 29.3573 31.3902 29.8341Z" fill="white"/>
<path d="M18.9727 12.4863V12.4863C21.1822 13.0387 22.9074 14.7639 23.4598 16.9735V16.9735" stroke="white" stroke-width="1.79486" stroke-linecap="round"/>
<path d="M18.9727 8V8C23.3917 9.10477 26.8422 12.5552 27.947 16.9743V16.9743" stroke="white" stroke-width="1.79486" stroke-linecap="round"/>
</svg>
