<svg width="40" height="40" viewBox="0 0 40 40" fill="none" xmlns="http://www.w3.org/2000/svg">
<rect width="40" height="40" rx="5" fill="#38524B"/>
<g clip-path="url(#clip0_2655_11845)">
<circle cx="20" cy="20" r="14" fill="white"/>
<g clip-path="url(#clip1_2655_11845)">
<path d="M26.5693 24.1026V26.2484C26.5701 26.4476 26.5293 26.6448 26.4495 26.8273C26.3697 27.0099 26.2527 27.1737 26.1059 27.3084C25.9591 27.4431 25.7858 27.5456 25.5971 27.6094C25.4084 27.6732 25.2084 27.6969 25.01 27.679C22.809 27.4398 20.6947 26.6877 18.8371 25.4831C17.1089 24.3849 15.6437 22.9196 14.5455 21.1914C13.3366 19.3254 12.5843 17.2009 12.3496 14.9899C12.3317 14.7921 12.3552 14.5928 12.4186 14.4046C12.482 14.2163 12.5839 14.0434 12.7178 13.8967C12.8517 13.75 13.0146 13.6328 13.1963 13.5526C13.378 13.4723 13.5744 13.4308 13.773 13.4306H15.9188C16.2659 13.4272 16.6025 13.5501 16.8657 13.7765C17.1289 14.0028 17.3008 14.3172 17.3494 14.6609C17.4399 15.3476 17.6079 16.0219 17.8501 16.6708C17.9463 16.9268 17.9671 17.2051 17.9101 17.4726C17.853 17.7401 17.7205 17.9856 17.5282 18.1801L16.6198 19.0885C17.638 20.8792 19.1207 22.3619 20.9115 23.3802L21.8199 22.4718C22.0143 22.2794 22.2599 22.1469 22.5274 22.0899C22.7949 22.0328 23.0731 22.0536 23.3291 22.1499C23.9781 22.392 24.6523 22.56 25.339 22.6506C25.6865 22.6996 26.0038 22.8746 26.2307 23.1423C26.4575 23.41 26.578 23.7518 26.5693 24.1026Z" fill="#38524B"/>
</g>
<path d="M21.3984 15.3013V15.3013C23.024 15.7077 24.2933 16.977 24.6997 18.6026V18.6026" stroke="#38524B" stroke-width="1.32052" stroke-linecap="round"/>
<path d="M21.3984 12V12C24.6497 12.8128 27.1882 15.3514 28.001 18.6026V18.6026" stroke="#38524B" stroke-width="1.32052" stroke-linecap="round"/>
</g>
<defs>
<clipPath id="clip0_2655_11845">
<rect width="28" height="28" fill="white" transform="translate(6 6)"/>
</clipPath>
<clipPath id="clip1_2655_11845">
<rect width="17.1667" height="17.1667" fill="white" transform="translate(10.832 12)"/>
</clipPath>
</defs>
</svg>
