<svg width="40" height="40" viewBox="0 0 40 40" fill="none" xmlns="http://www.w3.org/2000/svg">
<g clip-path="url(#clip0_3202_10448)">
<path d="M34 0H6C2.68629 0 0 2.68629 0 6V34C0 37.3137 2.68629 40 6 40H34C37.3137 40 40 37.3137 40 34V6C40 2.68629 37.3137 0 34 0Z" fill="#25D366"/>
<path d="M9.60944 30.7036L10.7032 25.6254C9.2974 23.4081 8.74899 20.7541 9.16087 18.1612C9.57275 15.5683 10.9166 13.2148 12.9403 11.5422C14.964 9.86969 17.5284 8.99305 20.1525 9.07678C22.7765 9.16051 25.2799 10.1989 27.1928 11.997C29.1057 13.7952 30.2968 16.2296 30.5425 18.8434C30.7883 21.4573 30.0718 24.071 28.5275 26.1942C26.9832 28.3174 24.7172 29.8041 22.1548 30.3754C19.5923 30.9467 16.9094 30.5634 14.6094 29.2973L9.60944 30.7036Z" fill="#25D366" stroke="white" stroke-width="2.03125"/>
<path d="M24.0621 21.3283C23.8277 21.1721 23.5933 21.0939 23.3589 21.4064L22.4214 22.6564C22.1871 22.8127 22.0308 22.8908 21.7183 22.7346C20.5464 22.1096 18.9058 21.4064 17.4996 19.0627C17.4214 18.7502 17.5777 18.5939 17.7339 18.4377L18.4371 17.3439C18.5933 17.1877 18.5152 17.0314 18.4371 16.8752L17.4996 14.6096C17.2652 13.9846 17.0308 14.0627 16.7964 14.0627H16.1714C16.0152 14.0627 15.7027 14.1408 15.3902 14.4533C13.6714 16.1721 14.3746 18.5939 15.6246 20.1564C15.8589 20.4689 17.4214 23.2814 20.7808 24.7658C23.2808 25.8596 23.8277 25.7033 24.5308 25.5471C25.3902 25.4689 26.2496 24.7658 26.6402 24.0627C26.7183 23.8283 27.1089 22.8127 26.7964 22.6564" fill="white"/>
</g>
<defs>
<clipPath id="clip0_3202_10448">
<rect width="40" height="40" rx="10" fill="white"/>
</clipPath>
</defs>
</svg>
