<svg width="44" height="44" viewBox="0 0 44 44" fill="none" xmlns="http://www.w3.org/2000/svg">
<rect x="1.25" y="1.25" width="41.5" height="41.5" rx="10.75" fill="#FAFAFA"/>
<rect x="1.25" y="1.25" width="41.5" height="41.5" rx="10.75" stroke="white" stroke-width="1.5"/>
<g clip-path="url(#clip0_3050_8956)">
<path d="M36 2H8C4.68629 2 2 4.68629 2 8V36C2 39.3137 4.68629 42 8 42H36C39.3137 42 42 39.3137 42 36V8C42 4.68629 39.3137 2 36 2Z" fill="#25D366"/>
<path d="M11.6094 32.7036L12.7032 27.6254C11.2974 25.4081 10.749 22.7541 11.1609 20.1612C11.5727 17.5683 12.9166 15.2148 14.9403 13.5422C16.964 11.8697 19.5284 10.993 22.1525 11.0768C24.7765 11.1605 27.2799 12.1989 29.1928 13.997C31.1057 15.7952 32.2968 18.2296 32.5425 20.8434C32.7883 23.4573 32.0718 26.071 30.5275 28.1942C28.9832 30.3174 26.7172 31.8041 24.1548 32.3754C21.5923 32.9467 18.9094 32.5634 16.6094 31.2973L11.6094 32.7036Z" fill="#25D366" stroke="white" stroke-width="2.03125"/>
<path d="M26.0621 23.3283C25.8277 23.1721 25.5933 23.0939 25.3589 23.4064L24.4214 24.6564C24.1871 24.8127 24.0308 24.8908 23.7183 24.7346C22.5464 24.1096 20.9058 23.4064 19.4996 21.0627C19.4214 20.7502 19.5777 20.5939 19.7339 20.4377L20.4371 19.3439C20.5933 19.1877 20.5152 19.0314 20.4371 18.8752L19.4996 16.6096C19.2652 15.9846 19.0308 16.0627 18.7964 16.0627H18.1714C18.0152 16.0627 17.7027 16.1408 17.3902 16.4533C15.6714 18.1721 16.3746 20.5939 17.6246 22.1564C17.8589 22.4689 19.4214 25.2814 22.7808 26.7658C25.2808 27.8596 25.8277 27.7033 26.5308 27.5471C27.3902 27.4689 28.2496 26.7658 28.6402 26.0627C28.7183 25.8283 29.1089 24.8127 28.7964 24.6564" fill="white"/>
</g>
<defs>
<clipPath id="clip0_3050_8956">
<rect x="2" y="2" width="40" height="40" rx="10" fill="white"/>
</clipPath>
</defs>
</svg>
