<svg width="40" height="40" viewBox="0 0 40 40" fill="none" xmlns="http://www.w3.org/2000/svg">
<rect width="40" height="40" rx="5" fill="#38524B"/>
<g clip-path="url(#clip0_2655_11838)">
<path d="M29.8017 10.0706C28.5183 8.77471 26.9897 7.74738 25.305 7.04851C23.6203 6.34964 21.8134 5.99324 19.9895 6.0001C12.3472 6.0001 6.119 12.2266 6.112 19.8706C6.112 22.3188 6.7525 24.7006 7.96175 26.8093L6 34.0001L13.357 32.0716C15.3914 33.1815 17.6721 33.7622 19.9895 33.7603H19.9965C27.6405 33.7603 33.867 27.5338 33.874 19.8828C33.8756 18.0595 33.5164 16.2538 32.8172 14.5697C32.118 12.8857 31.0943 11.3567 29.8017 10.0706ZM19.9895 31.4118C17.9231 31.4102 15.8949 30.8542 14.1165 29.8018L13.6965 29.5498L9.332 30.6943L10.4975 26.4366L10.2245 25.9973C9.06916 24.1604 8.45813 22.0336 8.46225 19.8636C8.46225 13.5181 13.637 8.3416 19.9965 8.3416C21.5115 8.33888 23.0121 8.63608 24.4118 9.21606C25.8114 9.79604 27.0824 10.6473 28.1515 11.7208C29.2241 12.7904 30.0744 14.0615 30.6535 15.4612C31.2325 16.8608 31.5289 18.3612 31.5255 19.8758C31.5185 26.2441 26.3437 31.4118 19.9895 31.4118Z" fill="white"/>
<path d="M19.9895 31.4118C17.9231 31.4102 15.8949 30.8542 14.1165 29.8018L13.6965 29.5498L9.332 30.6943L10.4975 26.4366L10.2245 25.9973C9.06916 24.1604 8.45813 22.0336 8.46225 19.8636C8.46225 13.5181 13.637 8.3416 19.9965 8.3416C21.5115 8.33888 23.0121 8.63608 24.4118 9.21606C25.8114 9.79604 27.0824 10.6473 28.1515 11.7208C29.2241 12.7904 30.0744 14.0615 30.6535 15.4612C31.2325 16.8608 31.5289 18.3612 31.5255 19.8758C31.5185 26.2441 26.3437 31.4118 19.9895 31.4118Z" fill="white"/>
<path d="M26.3153 22.7769C25.9706 22.6036 24.2678 21.7654 23.9476 21.6464C23.6291 21.5326 23.3963 21.4731 23.1688 21.8196C22.9361 22.1644 22.2711 22.9501 22.0716 23.1759C21.8721 23.4086 21.6656 23.4349 21.3191 23.2634C20.9743 23.0884 19.8561 22.7244 18.5331 21.5396C17.5006 20.6209 16.8093 19.4834 16.6028 19.1386C16.4033 18.7921 16.5836 18.6066 16.7568 18.4334C16.9091 18.2794 17.1016 18.0274 17.2748 17.8279C17.4498 17.6284 17.5076 17.4814 17.6213 17.2504C17.7351 17.0159 17.6808 16.8164 17.5951 16.6431C17.5076 16.4699 16.8163 14.7601 16.5241 14.0706C16.2441 13.3899 15.9588 13.4844 15.7453 13.4756C15.5458 13.4634 15.3131 13.4634 15.0803 13.4634C14.9046 13.4679 14.7316 13.5086 14.5723 13.5829C14.4131 13.6573 14.2708 13.7638 14.1546 13.8956C13.8361 14.2421 12.9453 15.0804 12.9453 16.7901C12.9453 18.4999 14.1878 20.1431 14.3628 20.3759C14.5343 20.6086 16.8023 24.1069 20.2831 25.6119C21.1056 25.9706 21.7531 26.1824 22.2588 26.3434C23.0901 26.6094 23.8408 26.5691 24.4393 26.4834C25.1043 26.3819 26.4886 25.6434 26.7808 24.8331C27.0678 24.0211 27.0678 23.3281 26.9803 23.1829C26.8946 23.0359 26.6618 22.9501 26.3153 22.7769Z" fill="#38524B"/>
</g>
<defs>
<clipPath id="clip0_2655_11838">
<rect width="28" height="28" fill="white" transform="translate(6 6)"/>
</clipPath>
</defs>
</svg>
