<svg width="40" height="40" viewBox="0 0 40 40" fill="none" xmlns="http://www.w3.org/2000/svg">
<rect width="40" height="40" rx="5" fill="#FAFAFA"/>
<g clip-path="url(#clip0_2697_12227)">
<path d="M29.8017 10.0706C28.5183 8.77471 26.9897 7.74738 25.305 7.04851C23.6203 6.34964 21.8134 5.99324 19.9895 6.0001C12.3472 6.0001 6.119 12.2266 6.112 19.8706C6.112 22.3188 6.7525 24.7006 7.96175 26.8093L6 34.0001L13.357 32.0716C15.3914 33.1815 17.6721 33.7622 19.9895 33.7603H19.9965C27.6405 33.7603 33.867 27.5338 33.874 19.8828C33.8756 18.0595 33.5164 16.2538 32.8172 14.5697C32.118 12.8857 31.0943 11.3567 29.8017 10.0706ZM19.9895 31.4118C17.9231 31.4102 15.8949 30.8542 14.1165 29.8018L13.6965 29.5498L9.332 30.6943L10.4975 26.4366L10.2245 25.9973C9.06916 24.1604 8.45813 22.0336 8.46225 19.8636C8.46225 13.5181 13.637 8.3416 19.9965 8.3416C21.5115 8.33888 23.0121 8.63608 24.4118 9.21606C25.8114 9.79604 27.0824 10.6473 28.1515 11.7208C29.2241 12.7904 30.0744 14.0615 30.6535 15.4612C31.2325 16.8608 31.5289 18.3612 31.5255 19.8758C31.5185 26.2441 26.3437 31.4118 19.9895 31.4118Z" fill="#38524B"/>
<path d="M19.9895 31.4118C17.9231 31.4102 15.8949 30.8542 14.1165 29.8018L13.6965 29.5498L9.332 30.6943L10.4975 26.4366L10.2245 25.9973C9.06916 24.1604 8.45813 22.0336 8.46225 19.8636C8.46225 13.5181 13.637 8.3416 19.9965 8.3416C21.5115 8.33888 23.0121 8.63608 24.4118 9.21606C25.8114 9.79604 27.0824 10.6473 28.1515 11.7208C29.2241 12.7904 30.0744 14.0615 30.6535 15.4612C31.2325 16.8608 31.5289 18.3612 31.5255 19.8758C31.5185 26.2441 26.3437 31.4118 19.9895 31.4118Z" fill="#38524B"/>
<path d="M26.3153 22.7774C25.9706 22.6041 24.2678 21.7659 23.9476 21.6469C23.6291 21.5331 23.3963 21.4736 23.1688 21.8201C22.9361 22.1649 22.2711 22.9506 22.0716 23.1764C21.8721 23.4091 21.6656 23.4354 21.3191 23.2639C20.9743 23.0889 19.8561 22.7249 18.5331 21.5401C17.5006 20.6214 16.8093 19.4839 16.6028 19.1391C16.4033 18.7926 16.5836 18.6071 16.7568 18.4339C16.9091 18.2799 17.1016 18.0279 17.2748 17.8284C17.4498 17.6289 17.5076 17.4819 17.6213 17.2509C17.7351 17.0164 17.6808 16.8169 17.5951 16.6436C17.5076 16.4704 16.8163 14.7606 16.5241 14.0711C16.2441 13.3904 15.9588 13.4849 15.7453 13.4761C15.5458 13.4639 15.3131 13.4639 15.0803 13.4639C14.9046 13.4683 14.7316 13.509 14.5723 13.5834C14.4131 13.6578 14.2708 13.7642 14.1546 13.8961C13.8361 14.2426 12.9453 15.0809 12.9453 16.7906C12.9453 18.5004 14.1878 20.1436 14.3628 20.3764C14.5343 20.6091 16.8023 24.1074 20.2831 25.6124C21.1056 25.9711 21.7531 26.1829 22.2588 26.3439C23.0901 26.6099 23.8408 26.5696 24.4393 26.4839C25.1043 26.3824 26.4886 25.6439 26.7808 24.8336C27.0678 24.0216 27.0678 23.3286 26.9803 23.1834C26.8946 23.0364 26.6618 22.9506 26.3153 22.7774Z" fill="#FAFAFA"/>
</g>
<defs>
<clipPath id="clip0_2697_12227">
<rect width="28" height="28" fill="white" transform="translate(6 6)"/>
</clipPath>
</defs>
</svg>
