<svg width="110" height="40" viewBox="0 0 110 40" fill="none" xmlns="http://www.w3.org/2000/svg">
<rect x="0.5" y="0.5" width="109" height="39" rx="4.5" fill="white"/>
<rect x="0.5" y="0.5" width="109" height="39" rx="4.5" stroke="#2D3C38"/>
<g clip-path="url(#clip0_3050_9230)">
<path d="M39.9789 13.8593C39.6849 12.7609 38.8217 11.8978 37.7233 11.6037C35.7346 11.0703 27.7561 11.0703 27.7561 11.0703C27.7561 11.0703 19.7778 11.0703 17.789 11.6037C16.6906 11.8978 15.8275 12.7609 15.5334 13.8593C15 15.8481 15 20.0001 15 20.0001C15 20.0001 15 24.152 15.5334 26.1409C15.8275 27.2392 16.6906 28.1024 17.789 28.3963C19.7778 28.9298 27.7561 28.9298 27.7561 28.9298C27.7561 28.9298 35.7346 28.9298 37.7233 28.3963C38.8217 28.1024 39.6849 27.2392 39.9789 26.1409C40.5124 24.152 40.5124 20.0001 40.5124 20.0001C40.5124 20.0001 40.5102 15.8481 39.9789 13.8593Z" fill="#FF0000"/>
<path d="M25.2031 23.8267L31.8311 20.0003L25.2031 16.1738V23.8267Z" fill="white"/>
<path d="M45.8997 22.6822L43.0352 12.3369H45.5343L46.5382 17.0265C46.7944 18.1816 46.9813 19.1665 47.1031 19.9814H47.1766C47.2606 19.3975 47.4497 18.4189 47.7416 17.0433L48.7811 12.3369H51.2803L48.38 22.6822V27.6448H45.8977V22.6822H45.8997Z" fill="#111111"/>
<path d="M52.0332 27.3162C51.5292 26.9759 51.1701 26.4467 50.9559 25.7285C50.7438 25.0102 50.6367 24.0568 50.6367 22.8639V21.2405C50.6367 20.0371 50.7585 19.069 51.0021 18.3402C51.2457 17.6115 51.6259 17.078 52.1425 16.7441C52.6591 16.4102 53.3374 16.2422 54.1775 16.2422C55.005 16.2422 55.6665 16.4123 56.1663 16.7525C56.664 17.0927 57.0294 17.6262 57.2604 18.3486C57.4915 19.0732 57.607 20.0371 57.607 21.2405V22.8639C57.607 24.0568 57.4936 25.0144 57.2689 25.7368C57.0442 26.4614 56.6788 26.9907 56.1747 27.3246C55.6707 27.6585 54.986 27.8265 54.1229 27.8265C53.2324 27.8286 52.5373 27.6564 52.0332 27.3162ZM54.86 25.5647C54.9986 25.1993 55.0701 24.6049 55.0701 23.7775V20.2934C55.0701 19.4911 55.0008 18.903 54.86 18.5334C54.7193 18.1617 54.4737 17.9769 54.1207 17.9769C53.7806 17.9769 53.5391 18.1617 53.4005 18.5334C53.2597 18.9052 53.1904 19.4911 53.1904 20.2934V23.7775C53.1904 24.6049 53.2576 25.2013 53.3921 25.5647C53.5265 25.9301 53.7679 26.1128 54.1207 26.1128C54.4737 26.1128 54.7193 25.9301 54.86 25.5647Z" fill="#111111"/>
<path d="M65.7335 27.6464H63.7636L63.5451 26.2771H63.4906C62.955 27.3104 62.1527 27.8269 61.0817 27.8269C60.3403 27.8269 59.7922 27.5833 59.4394 27.0983C59.0866 26.611 58.9102 25.8508 58.9102 24.8175V16.4611H61.4283V24.6705C61.4283 25.1703 61.4828 25.5252 61.592 25.7374C61.7012 25.9495 61.8839 26.0565 62.1401 26.0565C62.3586 26.0565 62.5686 25.9894 62.7702 25.855C62.9719 25.7205 63.1188 25.5504 63.2175 25.3447V16.459H65.7335V27.6464Z" fill="#111111"/>
<path d="M72.5751 14.3624H70.0759V27.6457H67.6124V14.3624H65.1133V12.3379H72.5751V14.3624Z" fill="#111111"/>
<path d="M78.6475 27.6464H76.6776L76.4592 26.2771H76.4046C75.8691 27.3104 75.0669 27.8269 73.9958 27.8269C73.2544 27.8269 72.7063 27.5833 72.3535 27.0983C72.0007 26.611 71.8242 25.8508 71.8242 24.8175V16.4611H74.3423V24.6705C74.3423 25.1703 74.3969 25.5252 74.5061 25.7374C74.6153 25.9495 74.798 26.0565 75.0543 26.0565C75.2726 26.0565 75.4826 25.9894 75.6843 25.855C75.8859 25.7205 76.0329 25.5504 76.1316 25.3447V16.459H78.6475V27.6464Z" fill="#111111"/>
<path d="M86.9829 18.2483C86.8296 17.5426 86.5838 17.0323 86.2437 16.7152C85.9035 16.3981 85.4351 16.2406 84.8387 16.2406C84.3766 16.2406 83.944 16.3708 83.5429 16.6333C83.1417 16.8958 82.8309 17.2381 82.6125 17.6644H82.5936V11.7715H80.168V27.6442H82.2471L82.5033 26.5858H82.5579C82.7532 26.9638 83.0451 27.2599 83.4337 27.4805C83.8222 27.6989 84.2548 27.8081 84.7295 27.8081C85.58 27.8081 86.208 27.4154 86.6091 26.632C87.0102 25.8465 87.2118 24.6222 87.2118 22.9547V21.1843C87.2118 19.9347 87.1341 18.9539 86.9829 18.2483ZM84.6748 22.8118C84.6748 23.6267 84.6412 24.2651 84.574 24.7272C84.5068 25.1892 84.3955 25.519 84.2359 25.7121C84.0784 25.9074 83.8642 26.004 83.5974 26.004C83.3896 26.004 83.1985 25.9557 83.022 25.857C82.8456 25.7604 82.7029 25.6134 82.5936 25.4202V19.0715C82.6776 18.767 82.8247 18.5192 83.0325 18.3239C83.2384 18.1286 83.4652 18.032 83.7066 18.032C83.9629 18.032 84.1603 18.1328 84.299 18.3323C84.4396 18.5339 84.5362 18.8699 84.5909 19.3445C84.6454 19.8192 84.6728 20.4933 84.6728 21.369V22.8118H84.6748Z" fill="#111111"/>
<path d="M90.7855 23.4568C90.7855 24.175 90.8065 24.7127 90.8486 25.0718C90.8905 25.4309 90.9788 25.6914 91.1132 25.8573C91.2475 26.0211 91.4534 26.103 91.7327 26.103C92.1086 26.103 92.369 25.956 92.5076 25.6641C92.6484 25.3721 92.724 24.8849 92.7366 24.2045L94.9081 24.3325C94.9207 24.4292 94.927 24.5636 94.927 24.7337C94.927 25.7669 94.6434 26.5398 94.0785 27.0501C93.5137 27.5605 92.7135 27.8167 91.6802 27.8167C90.4391 27.8167 89.5696 27.4281 89.0718 26.649C88.572 25.8699 88.3242 24.6665 88.3242 23.0367V21.0836C88.3242 19.4057 88.5826 18.1792 89.0991 17.4063C89.6158 16.6335 90.5 16.2471 91.7537 16.2471C92.6168 16.2471 93.2805 16.4046 93.7425 16.7217C94.2045 17.0388 94.53 17.5302 94.7191 18.2002C94.9081 18.8701 95.0026 19.7942 95.0026 20.9744V22.8898H90.7855V23.4568ZM91.1048 18.1855C90.9766 18.343 90.8927 18.6013 90.8486 18.9604C90.8065 19.3196 90.7855 19.8635 90.7855 20.5944V21.3966H92.6274V20.5944C92.6274 19.8761 92.6022 19.3322 92.5539 18.9604C92.5056 18.5887 92.4173 18.3283 92.2892 18.175C92.1612 18.0238 91.9637 17.9461 91.697 17.9461C91.4282 17.9482 91.2308 18.028 91.1048 18.1855Z" fill="#111111"/>
</g>
<defs>
<clipPath id="clip0_3050_9230">
<rect width="80" height="17.8595" fill="white" transform="translate(15 11.0703)"/>
</clipPath>
</defs>
</svg>
